<?xml version="1.0" encoding="utf-8"?>
<!-- Generator: Adobe Illustrator 27.0.1, SVG Export Plug-In . SVG Version: 6.00 Build 0)  -->
<svg version="1.1" xmlns="http://www.w3.org/2000/svg" xmlns:xlink="http://www.w3.org/1999/xlink" x="0px" y="0px"
	 viewBox="0 0 1920 1080" style="enable-background:new 0 0 1920 1080;" xml:space="preserve">
<style type="text/css">
	.st0{display:none;}
	.st1{display:inline;fill:none;stroke:#0000FF;stroke-width:3;stroke-miterlimit:10;}
	.st2{display:inline;fill:#FF0000;stroke:#FF0000;stroke-width:2;stroke-miterlimit:10;}
	.st3{display:inline;fill:#0000FF;stroke:#0000FF;stroke-width:2;stroke-miterlimit:10;}
	.st4{display:inline;fill:#F7931E;stroke:#FBB03B;stroke-width:2;stroke-miterlimit:10;}
	.st5{display:inline;fill:#F7931E;stroke:#F7931E;stroke-width:2;stroke-miterlimit:10;}
	.st6{display:inline;fill:#FFFFFF;}
	.st7{display:inline;fill:none;stroke:#000000;stroke-width:2;stroke-miterlimit:10;}
	.st8{display:inline;fill:#F7931E;}
	.st9{display:inline;fill:none;}
	.st10{display:inline;}
	.st11{fill:#0000FF;}
	.st12{display:inline;fill:#0000FF;}
	.st13{display:inline;fill:#F7CD4A;}
	.st14{font-family:'CenturyGothic-Bold';}
	.st15{font-size:102px;}
	.st16{fill:#F7CD4A;}
	.st17{fill:#F7D31C;}
	.st18{fill:#F7CB2B;}
	.st19{fill:#FFFFFF;}
</style>
<g id="Слой_1" class="st0">
	
		<image style="display:inline;overflow:visible;" width="1283" height="723" xlink:href="Screenshot_2.png"  transform="matrix(0.9322 0 0 0.9322 185.1749 208.3269)">
	</image>
</g>
<g id="Слой_2" class="st0">
	<path class="st1" d="M729.6,275.5"/>
	<polyline class="st1" points="0,0 0,0 0,0 	"/>
	<path class="st1" d="M700.8,219.9"/>
	<polyline class="st1" points="0,0 0,0 0,0 	"/>
	<path class="st2" d="M562.5,283.5c-12.6,7.8-25.5,15.8-44,20c-7.1,1.6-35.5,7.3-66-5c-14.3-5.7-19.9-11.7-34-22
		c-41.8-30.3-82.6-43.3-101-49c-1.3-0.4-2.8-0.9-4.5-1.4c14-10.8,39.9-27.8,76.5-36.6c13.8-3.3,46-9.5,86-2
		c43.7,8.2,72.5,28.3,79,33c19,13.6,31.9,28.4,40,39C577.8,270.9,578.2,273.8,562.5,283.5z"/>
	<path class="st2" d="M593.5,258.5c-16.7,11.4-16.3,14.3-32,24c-12.6,7.8-25.5,15.8-44,20c-7.1,1.6-35.5,7.3-66-5
		c-14.3-5.7-19.9-11.7-34-22c-41.8-30.3-82.6-43.3-101-49c-1.3-0.4-2.8-0.9-4.5-1.4c14-10.8,39.9-27.8,76.5-36.6
		c13.8-3.3,46-9.5,86-2c43.7,8.2,72.5,28.3,79,33C572.5,233.1,585.4,247.9,593.5,258.5z"/>
	<path class="st2" d="M655.4,228.3c-2.5,0.7-4.8,1.5-6.9,2.2c-13.4,4.5-24.8,9.9-34,15c-10.5-17.9-28.4-42.8-57-65
		c-53.2-41.1-110.6-47.1-136.7-47.9c26.4-3.4,79.5-6.1,137.7,19.9C609.8,175.4,640.8,209.7,655.4,228.3z"/>
	<path class="st1" d="M105.3,351.8"/>
	<path class="st1" d="M105.8,422"/>
	<path class="st2" d="M234.5,211.5c11.1-13.3,27.8-31,51-48c14.7-10.8,61.6-42.9,131-53c86.6-12.6,153,17.3,176,28
		c53.6,25,88.8,59.2,108,81l0.3,0.4c-7.5-11.1-101.6-145.4-273.3-145.4c-170.8,0-264.8,132.9-272.5,144.2c9.9-2.1,20.8-3.9,32.5-5.2
		C204.7,211.6,220.5,211.1,234.5,211.5z"/>
	<path class="st1" d="M655.5,228.5c0-0.1-0.1-0.1-0.1-0.2"/>
	<path class="st1" d="M614.5,245.5C614.5,245.5,614.5,245.5,614.5,245.5"/>
	<path class="st1" d="M312,225.1c-0.2,0.1-0.3,0.2-0.5,0.4"/>
	<path class="st1" d="M105.6,349.5C105.6,349.5,105.5,349.5,105.6,349.5"/>
	<path class="st1" d="M748.5,355.5c-0.2,0-0.3-0.1-0.5-0.1"/>
	<path class="st3" d="M728.5,274.5c-10.1-0.5-21.2-0.6-33,0c-14.2,0.7-27.3,2.1-39,4c9.8-4,21.5-7.9,35-11c11.7-2.7,22.5-4.2,32-5
		c1.4,2.7,2.8,5.7,4,9C727.9,272.5,728.2,273.5,728.5,274.5z"/>
	<path class="st3" d="M124.5,275.5c25.5-3.2,59.2-4.7,98,1c20.7,3,60.5,9.1,103,31c7.3,3.8,28.2,14.9,53,31
		c25.1,16.2,24.8,18.5,36,23c32.6,13.3,63.6,6.1,72,4c15.2-3.7,26.7-9.7,34-14h2c-9.9,0.7-25.1,0.6-42-5c-28.8-9.5-38.4-26.8-73-47
		c-16.3-9.5-29.1-14.4-44-20c-64.2-24.3-120.8-23.6-137-23C186,257.9,151.4,266.2,124.5,275.5z"/>
	<path class="st4" d="M232.5,629.5c-2.1-20.6-8.2-53.7-28-89c-30.2-53.7-74.3-80.3-94-90.7c0.1,0.3,0.1,0.5,0.2,0.8
		c16.6,74.5,60.8,139.2,121.8,183.5L232.5,629.5z"/>
	<path class="st4" d="M320.5,679.5c3.1-14,21.4-102-36-183c-64.4-90.8-169.1-95.7-181-96c0.2,3.8,0.5,7.8,1,12c0.3,2.4,0.6,4.7,1,7
		c15.6,3.1,80.9,17.9,127,80c51.2,69,40.2,144.4,38,158c7.1,4.3,15.4,8.8,25,13C304.5,674.4,312.9,677.3,320.5,679.5z"/>
	<path class="st5" d="M348.5,687.5c4.5-14.8,30.8-106.6-23-194c-45.6-74-131.3-116.5-222-111c26.6-3.4,81.3-6.6,142,19
		c59,24.9,92.2,63.8,99,72c35.7,43,46.9,86.5,50,100c12.5,54.7,2.3,99.7-4,121c-13.9-1.4-27.9-3.8-42-7.1c-0.4-0.1-0.8-0.2-1.1-0.3
		L348.5,687.5z"/>
	<path class="st5" d="M523.5,430.5"/>
	<path class="st5" d="M746.5,429.5c-21.5-9.6-56.4-22-101-24c-55.4-2.5-98.7,12.1-122,22c21.5-13.8,62.2-35.9,118-43
		c46.5-5.9,84.7,0.9,108,7c-0.2,6.1-0.5,12.4-1,19C748,417.1,747.3,423.5,746.5,429.5z"/>
	<path class="st5" d="M738.5,464.5c-24.5-11.3-84-34.5-160-24c-97,13.4-156.1,72.8-173,91c1,2.1,2.1,4.4,3,7c0.4,1,0.7,2,1,3
		c16.3-15.3,75-66.6,166-72c73.4-4.3,127.9,23.7,149,36c3.5-7.6,7-16.3,10-26C736.1,474.3,737.4,469.3,738.5,464.5z"/>
	<path class="st5" d="M662.5,597.5c-20-12.9-55.3-31.8-103-39c-66.2-10-118.8,8.3-142,18c-0.7-5.5-1-7-1-7c-0.2-1.2-0.5-2.9-1-5
		c20.2-15.1,76.3-52.8,157-55c63.3-1.8,111.3,19.2,134,31c-5,8.5-10.9,17.6-18,27C679.7,579.3,670.8,589.2,662.5,597.5z"/>
	<path class="st5" d="M619.5,634.5c-19.3-12.4-52.7-30.5-98-39c-43.5-8.2-79.8-4.2-102,0c0.1,5.7,0,11.8-0.5,18.2
		c-0.4,5.6-0.9,10.8-1.5,15.8c11.7,3.7,25.9,9.3,41,18c22.2,12.8,38,27.7,48.5,39.2c0.7-0.2,1.5-0.4,2.2-0.5
		C544.5,677.2,581.7,661.1,619.5,634.5z"/>
	<path class="st1" d="M723.5,259.5"/>
	<path class="st3" d="M739.8,306.2c0.1,0.5,0.4,1.3,0.6,2.3c0,0,1.9,7.3,3.5,14.7c2.3,10.9,4,22,5.1,33.2
		c-56.6-11-101.9-5.4-128.6,0.1c-21.2,4.3-58.8,12-99,37c-27.7,17.2-34.8,29-65,41c-15.7,6.2-41.4,16.1-70,11
		c-32.1-5.7-53.2-28.2-62-37c-28.3-28.2-86.8-57.1-220-58c-0.2-4.5,0-9.9,1-16c1.2-7.3,3.1-13.3,5-18c41.3-10,76-9.9,99-8
		c22.6,1.8,84.7,7.7,143,48c31.9,22,28.9,31.1,53,40c51.5,19.1,105.4-7.3,115-12c24.3-11.9,35-24,49-35c29-22.8,79.1-46.3,170-42"/>
</g>
<g id="Слой_3" class="st0">
	<path class="st6" d="M1916,0v965.5c-37.9,38.8-74.1,128-174,203.5c-26.3,19.9-99.2,70.7-298,106c-129.3,23-277.8,33.3-680-2
		c-305.6-26.8-373.1-46.2-489-4c-128.7,46.9-217.9,133.7-275,204.1V0H1916z"/>
	<path class="st6" d="M1916,1417.6v665.2c-21.1-5.9-50.9-12.2-89-15.4v40.5c8.4,0,16.9,0.2,25.5,0.5c23.8,0.9,45.2,2.8,63.5,5.1
		v429.9c-134.2-44.1-287.2-1-377.3,117.9c-6.5,8.6-12.5,17.4-18.1,26.4c10.8-1.2,21.8-1.8,32.9-1.8c26.6,0,52.3,3.5,76.6,10
		c83.2-58.4,188.6-76.3,285.9-49.5v81.9c-61.2-12.9-126.6-9-189.2,14.5c28.7,21.6,52.6,48.6,70,79.1c40.9-1,81.2,5.5,119.2,18.6
		v99.2c-22.2-9.4-45.7-16.7-70.3-21.4c-6.3-1.2-12.6-2.2-18.9-3.1c0.8,7.9,1.2,15.9,1.2,24c0,20.6-2.7,40.6-7.7,59.7
		c35.5,14.3,67.7,34.4,95.7,58.8v597H0v-715.2c34.9,22.8,49,36.6,82.5,46.7c13.2,3.9,84.9,25.4,152-14c12-7.1,50.1-30.2,68-76
		c7.8-19.9,8.8-36.7,9-40c2.5-46.5-24.1-67.4-29-95c-10.6-59.3,79.6-142.1,172.8-167.5c77.1-21.1,182.9-10.1,211.2,42.5
		c12.3,22.9,3.5,39.4,23,75c6,10.9,25.6,43.4,58,61c64.7,35,159.2-1.4,209-58c41.6-47.3,48.9-106,50-116c6.9-61-17.1-98.3,6.2-158.2
		c0,0,8.4-20.2,24.3-43.1v-47.4c-20,14-52.4,36.9-77.5,78.6c-31.1,51.9-19.3,80.4-43,123c-28.2,50.8-91.2,93.3-151,96
		c-99.4,4.5-118.5-104.4-245.6-124.1c-9.4-1.5-102.7-15.2-179.2,38.1c-95,66.3-76.6,172.9-136.7,200.4c-34.5,15.8-94,5.1-204-93.7
		V1654.6c111-91,256.3-176.8,435-205.6c217.2-35,303.2,43.4,576,79C1319.4,1568.3,1698.5,1532,1916,1417.6z"/>
	<path class="st7" d="M507.4,685.5c-0.1-0.1-0.2-0.3-0.4-0.4"/>
	<path class="st7" d="M622.5,635.4c0.2-0.1,0.3-0.3,0.5-0.4"/>
	<path class="st8" d="M66,972c0,0.7,0,1.5,0,2.2c0,0,0,0,0,0V972z"/>
	<path class="st7" d="M66,972c0,0.7,0,1.5,0,2.2c0,0,0,0,0,0V972z"/>
	<path class="st9" d="M1643.1,255.7c-50.2-210.2,58-421.2,247.5-507.6c-21.4,70.9-24.9,148.2-6.4,225.4c1.3,5.5,2.7,10.9,4.2,16.3
		c-50.6,54.5-82.1,125.4-87.2,201.2c-3.5,51,6,89.5,8.3,98.5c34.9,133,167.8,236.1,303,248.4c36.2,3.3,66.8-0.5,88.3-4.6
		c-5.7,6.3-12.4,14.9-18.5,26c-5.6,10.2-9.1,19.6-11.3,27.3C1934.8,638.6,1699.5,491.9,1643.1,255.7z"/>
	<g>
		<g class="st10">
			<circle class="st11" cx="752.9" cy="593" r="17.7"/>
			<circle class="st11" cx="701.7" cy="682" r="18.9"/>
			<circle class="st11" cx="703.7" cy="627.7" r="5.9"/>
			<circle class="st11" cx="747.9" cy="643" r="9.4"/>
			<circle class="st11" cx="809.8" cy="585.6" r="16.5"/>
			<circle class="st11" cx="696.9" cy="560.3" r="11.8"/>
			<circle class="st11" cx="666.4" cy="624.3" r="9.4"/>
			<circle class="st11" cx="629.4" cy="659" r="15.3"/>
			<circle class="st11" cx="655.4" cy="689.8" r="5.9"/>
			<circle class="st11" cx="666.5" cy="655.5" r="13"/>
			<circle class="st11" cx="758.8" cy="681.5" r="14.2"/>
			<circle class="st11" cx="804.1" cy="651.4" r="15.3"/>
			<circle class="st11" cx="859.5" cy="651.4" r="11.8"/>
			<circle class="st11" cx="827.8" cy="686.3" r="3.5"/>
			<circle class="st11" cx="788.8" cy="683.4" r="8.3"/>
			<circle class="st11" cx="834.9" cy="625.4" r="5.9"/>
			<circle class="st11" cx="870.5" cy="598" r="18.9"/>
			<circle class="st11" cx="777.1" cy="561.9" r="4.7"/>
			<circle class="st11" cx="772.8" cy="620.3" r="10.6"/>
			<circle class="st11" cx="711.7" cy="594.2" r="3.5"/>
			<circle class="st11" cx="665" cy="576.2" r="15.3"/>
			<circle class="st11" cx="636.5" cy="598.1" r="8.3"/>
			<circle class="st11" cx="681.8" cy="599.2" r="8.3"/>
			<circle class="st11" cx="611.6" cy="620.7" r="9.4"/>
			<circle class="st11" cx="734.1" cy="520.3" r="20.1"/>
			<circle class="st11" cx="735.6" cy="556.3" r="5.9"/>
			<circle class="st11" cx="722" cy="575.7" r="8.3"/>
			<circle class="st11" cx="734.6" cy="724.7" r="14.2"/>
			<circle class="st11" cx="730.3" cy="691.3" r="5.9"/>
			<circle class="st11" cx="725.2" cy="654.6" r="7.1"/>
			<circle class="st11" cx="774.4" cy="730.8" r="11.8"/>
			<circle class="st11" cx="821" cy="717.7" r="13"/>
			<circle class="st11" cx="771.1" cy="700.6" r="5.9"/>
			<circle class="st11" cx="792.8" cy="710" r="5.9"/>
			<circle class="st11" cx="797.2" cy="762.5" r="11.8"/>
			<circle class="st11" cx="827.5" cy="759.2" r="5.9"/>
			<circle class="st11" cx="804.7" cy="739.6" r="7.1"/>
			<circle class="st11" cx="870.3" cy="702.1" r="17.7"/>
			<circle class="st11" cx="838.8" cy="664.1" r="7.1"/>
			<circle class="st11" cx="885.1" cy="668.4" r="7.1"/>
			<circle class="st11" cx="888" cy="629.5" r="9.4"/>
			<circle class="st11" cx="911.8" cy="652.2" r="13"/>
			<circle class="st11" cx="848" cy="739.6" r="11.8"/>
		</g>
		<g class="st10">
			<circle class="st11" cx="980.9" cy="670" r="17.7"/>
			<circle class="st11" cx="1077.3" cy="705.2" r="18.9"/>
			<circle class="st11" cx="1023.4" cy="712.5" r="5.9"/>
			<circle class="st11" cx="1030.9" cy="666.3" r="9.4"/>
			<circle class="st11" cx="963.9" cy="615.2" r="16.5"/>
			<circle class="st11" cx="958.2" cy="730.8" r="11.8"/>
			<circle class="st11" cx="1026.5" cy="749.9" r="9.4"/>
			<circle class="st11" cx="1067" cy="780.4" r="15.3"/>
			<circle class="st11" cx="1092.9" cy="749.5" r="5.9"/>
			<circle class="st11" cx="1057.2" cy="744.4" r="13"/>
			<circle class="st11" cx="1067" cy="649" r="14.2"/>
			<circle class="st11" cx="1029.7" cy="609.6" r="15.3"/>
			<circle class="st11" cx="1020.2" cy="554.9" r="11.8"/>
			<circle class="st11" cx="1060" cy="580.3" r="3.5"/>
			<circle class="st11" cx="1063.8" cy="619.1" r="8.3"/>
			<circle class="st11" cx="998.8" cy="583.7" r="5.9"/>
			<circle class="st11" cx="965.7" cy="553.3" r="18.9"/>
			<circle class="st11" cx="946.1" cy="651.4" r="4.7"/>
			<circle class="st11" cx="1004.4" cy="645.7" r="10.6"/>
			<circle class="st11" cx="989.1" cy="710.4" r="3.5"/>
			<circle class="st11" cx="979.3" cy="759.5" r="15.3"/>
			<circle class="st11" cx="1005.8" cy="783.8" r="8.3"/>
			<circle class="st11" cx="999.1" cy="738.9" r="8.3"/>
			<circle class="st11" cx="1032.3" cy="804.4" r="9.4"/>
			<circle class="st11" cx="912.4" cy="700.9" r="20.1"/>
			<circle class="st11" cx="947.6" cy="693.3" r="5.9"/>
			<circle class="st11" cx="969.1" cy="703.3" r="8.3"/>
			<circle class="st11" cx="1113.8" cy="665.5" r="14.2"/>
			<circle class="st11" cx="1081.5" cy="675.4" r="5.9"/>
			<circle class="st11" cx="1046.2" cy="686.8" r="7.1"/>
			<circle class="st11" cx="1113" cy="625.2" r="11.8"/>
			<circle class="st11" cx="1092.1" cy="581.6" r="13"/>
			<circle class="st11" cx="1083.7" cy="633.7" r="5.9"/>
			<circle class="st11" cx="1089.4" cy="610.6" r="5.9"/>
			<circle class="st11" cx="1140.3" cy="597.3" r="11.8"/>
			<circle class="st11" cx="1131.9" cy="568.1" r="5.9"/>
			<circle class="st11" cx="1116.5" cy="593.9" r="7.1"/>
			<circle class="st11" cx="1068.3" cy="535.6" r="17.7"/>
			<circle class="st11" cx="1036.3" cy="573.1" r="7.1"/>
			<circle class="st11" cx="1032.6" cy="526.8" r="7.1"/>
			<circle class="st11" cx="993.7" cy="530.6" r="9.4"/>
			<circle class="st11" cx="1012.1" cy="503.3" r="13"/>
			<circle class="st11" cx="1109" cy="551.3" r="11.8"/>
		</g>
		<g class="st10">
			<circle class="st11" cx="800.4" cy="389.5" r="17.7"/>
			<circle class="st11" cx="749.2" cy="478.5" r="18.9"/>
			<circle class="st11" cx="751.2" cy="424.2" r="5.9"/>
			<circle class="st11" cx="795.4" cy="439.4" r="9.4"/>
			<circle class="st11" cx="857.2" cy="382.1" r="16.5"/>
			<circle class="st11" cx="744.3" cy="356.7" r="11.8"/>
			<circle class="st11" cx="713.9" cy="420.8" r="9.4"/>
			<circle class="st11" cx="676.8" cy="455.5" r="15.3"/>
			<circle class="st11" cx="702.8" cy="486.3" r="5.9"/>
			<circle class="st11" cx="714" cy="452" r="13"/>
			<circle class="st11" cx="806.3" cy="478" r="14.2"/>
			<circle class="st11" cx="851.5" cy="447.9" r="15.3"/>
			<circle class="st11" cx="907" cy="447.8" r="11.8"/>
			<circle class="st11" cx="875.2" cy="482.8" r="3.5"/>
			<circle class="st11" cx="836.3" cy="479.9" r="8.3"/>
			<circle class="st11" cx="882.3" cy="421.9" r="5.9"/>
			<circle class="st11" cx="917.9" cy="394.5" r="18.9"/>
			<circle class="st11" cx="824.5" cy="358.4" r="4.7"/>
			<circle class="st11" cx="820.2" cy="416.8" r="10.6"/>
			<circle class="st11" cx="759.1" cy="390.7" r="3.5"/>
			<circle class="st11" cx="712.4" cy="372.7" r="15.3"/>
			<circle class="st11" cx="683.9" cy="394.6" r="8.3"/>
			<circle class="st11" cx="729.3" cy="395.7" r="8.3"/>
			<circle class="st11" cx="659.1" cy="417.2" r="9.4"/>
			<circle class="st11" cx="781.6" cy="316.8" r="20.1"/>
			<circle class="st11" cx="783.1" cy="352.8" r="5.9"/>
			<circle class="st11" cx="769.5" cy="372.2" r="8.3"/>
			<circle class="st11" cx="782" cy="521.2" r="14.2"/>
			<circle class="st11" cx="777.8" cy="487.7" r="5.9"/>
			<circle class="st11" cx="772.7" cy="451" r="7.1"/>
			<circle class="st11" cx="821.9" cy="527.3" r="11.8"/>
			<circle class="st11" cx="868.5" cy="514.2" r="13"/>
			<circle class="st11" cx="818.6" cy="497" r="5.9"/>
			<circle class="st11" cx="840.3" cy="506.5" r="5.9"/>
			<circle class="st11" cx="844.7" cy="559" r="11.8"/>
			<circle class="st11" cx="875" cy="555.7" r="5.9"/>
			<circle class="st11" cx="852.1" cy="536.1" r="7.1"/>
			<circle class="st11" cx="917.8" cy="498.5" r="17.7"/>
			<circle class="st11" cx="886.3" cy="460.6" r="7.1"/>
			<circle class="st11" cx="932.6" cy="464.9" r="7.1"/>
			<circle class="st11" cx="935.5" cy="425.9" r="9.4"/>
			<circle class="st11" cx="959.2" cy="448.7" r="13"/>
			<circle class="st11" cx="895.4" cy="536" r="11.8"/>
		</g>
		<g class="st10">
			<circle class="st11" cx="1033.9" cy="291.9" r="17.7"/>
			<circle class="st11" cx="950.2" cy="351.5" r="18.9"/>
			<circle class="st11" cx="974.7" cy="303" r="5.9"/>
			<circle class="st11" cx="1008.5" cy="335.3" r="9.4"/>
			<circle class="st11" cx="1088.6" cy="308.9" r="16.5"/>
			<circle class="st11" cx="996.6" cy="238.8" r="11.8"/>
			<circle class="st11" cx="942.1" cy="284.4" r="9.4"/>
			<circle class="st11" cx="894" cy="300.5" r="15.3"/>
			<circle class="st11" cx="904.8" cy="339.3" r="5.9"/>
			<circle class="st11" cx="929.3" cy="312.8" r="13"/>
			<circle class="st11" cx="1002.3" cy="374.8" r="14.2"/>
			<circle class="st11" cx="1056" cy="366.3" r="15.3"/>
			<circle class="st11" cx="1106.4" cy="389.4" r="11.8"/>
			<circle class="st11" cx="1063" cy="408" r="3.5"/>
			<circle class="st11" cx="1028.8" cy="389.1" r="8.3"/>
			<circle class="st11" cx="1094.8" cy="355.5" r="5.9"/>
			<circle class="st11" cx="1138.6" cy="345.5" r="18.9"/>
			<circle class="st11" cx="1068.8" cy="273.8" r="4.7"/>
			<circle class="st11" cx="1040.5" cy="325.1" r="10.6"/>
			<circle class="st11" cx="995.8" cy="275.9" r="3.5"/>
			<circle class="st11" cx="960.9" cy="240" r="15.3"/>
			<circle class="st11" cx="925.9" cy="248" r="8.3"/>
			<circle class="st11" cx="966.7" cy="267.9" r="8.3"/>
			<circle class="st11" cx="893.9" cy="258.2" r="9.4"/>
			<circle class="st11" cx="1047.1" cy="218" r="20.1"/>
			<circle class="st11" cx="1033.4" cy="251.3" r="5.9"/>
			<circle class="st11" cx="1013" cy="263.3" r="8.3"/>
			<circle class="st11" cx="962.3" cy="404" r="14.2"/>
			<circle class="st11" cx="972.4" cy="371.8" r="5.9"/>
			<circle class="st11" cx="983" cy="336.4" r="7.1"/>
			<circle class="st11" cx="996" cy="426.2" r="11.8"/>
			<circle class="st11" cx="1043.8" cy="433.7" r="13"/>
			<circle class="st11" cx="1005.6" cy="397.3" r="5.9"/>
			<circle class="st11" cx="1021.4" cy="415" r="5.9"/>
			<circle class="st11" cx="1003.5" cy="464.5" r="11.8"/>
			<circle class="st11" cx="1032.4" cy="474.1" r="5.9"/>
			<circle class="st11" cx="1019.8" cy="446.8" r="7.1"/>
			<circle class="st11" cx="1095.2" cy="440" r="17.7"/>
			<circle class="st11" cx="1082.3" cy="392.4" r="7.1"/>
			<circle class="st11" cx="1122.6" cy="415.6" r="7.1"/>
			<circle class="st11" cx="1141.5" cy="381.4" r="9.4"/>
			<circle class="st11" cx="1153.6" cy="412" r="13"/>
			<circle class="st11" cx="1059.2" cy="464.8" r="11.8"/>
		</g>
		<g class="st10">
			<circle class="st11" cx="1260.4" cy="501" r="17.7"/>
			<circle class="st11" cx="1176.8" cy="560.5" r="18.9"/>
			<circle class="st11" cx="1201.3" cy="512" r="5.9"/>
			<circle class="st11" cx="1235" cy="544.3" r="9.4"/>
			<circle class="st11" cx="1315.2" cy="518" r="16.5"/>
			<circle class="st11" cx="1223.1" cy="447.8" r="11.8"/>
			<circle class="st11" cx="1168.7" cy="493.4" r="9.4"/>
			<circle class="st11" cx="1120.6" cy="509.5" r="15.3"/>
			<circle class="st11" cx="1131.4" cy="548.4" r="5.9"/>
			<circle class="st11" cx="1155.8" cy="521.8" r="13"/>
			<circle class="st11" cx="1228.9" cy="583.9" r="14.2"/>
			<circle class="st11" cx="1282.5" cy="575.4" r="15.3"/>
			<circle class="st11" cx="1333" cy="598.4" r="11.8"/>
			<circle class="st11" cx="1289.6" cy="617" r="3.5"/>
			<circle class="st11" cx="1255.3" cy="598.1" r="8.3"/>
			<circle class="st11" cx="1321.4" cy="564.5" r="5.9"/>
			<circle class="st11" cx="1365.2" cy="554.5" r="18.9"/>
			<circle class="st11" cx="1295.3" cy="482.8" r="4.7"/>
			<circle class="st11" cx="1267" cy="534.1" r="10.6"/>
			<circle class="st11" cx="1222.4" cy="484.9" r="3.5"/>
			<circle class="st11" cx="1187.4" cy="449" r="15.3"/>
			<circle class="st11" cx="1152.4" cy="457.1" r="8.3"/>
			<circle class="st11" cx="1193.2" cy="476.9" r="8.3"/>
			<circle class="st11" cx="1120.4" cy="467.3" r="9.4"/>
			<circle class="st11" cx="1273.6" cy="427" r="20.1"/>
			<circle class="st11" cx="1260" cy="460.4" r="5.9"/>
			<circle class="st11" cx="1239.5" cy="472.4" r="8.3"/>
			<circle class="st11" cx="1188.8" cy="613.1" r="14.2"/>
			<circle class="st11" cx="1198.9" cy="580.9" r="5.9"/>
			<circle class="st11" cx="1209.5" cy="545.4" r="7.1"/>
			<circle class="st11" cx="1222.5" cy="635.2" r="11.8"/>
			<circle class="st11" cx="1270.3" cy="642.7" r="13"/>
			<circle class="st11" cx="1232.1" cy="606.3" r="5.9"/>
			<circle class="st11" cx="1247.9" cy="624" r="5.9"/>
			<circle class="st11" cx="1230" cy="673.5" r="11.8"/>
			<circle class="st11" cx="1258.9" cy="683.1" r="5.9"/>
			<circle class="st11" cx="1246.3" cy="655.8" r="7.1"/>
			<circle class="st11" cx="1321.7" cy="649" r="17.7"/>
			<circle class="st11" cx="1308.9" cy="601.4" r="7.1"/>
			<circle class="st11" cx="1349.2" cy="624.6" r="7.1"/>
			<circle class="st11" cx="1368" cy="590.4" r="9.4"/>
			<circle class="st11" cx="1380.1" cy="621" r="13"/>
			<circle class="st11" cx="1285.7" cy="673.8" r="11.8"/>
		</g>
		<g class="st10">
			<circle class="st11" cx="808.7" cy="877.1" r="17.7"/>
			<circle class="st11" cx="863.9" cy="963.7" r="18.9"/>
			<circle class="st11" cx="816.7" cy="936.7" r="5.9"/>
			<circle class="st11" cx="850.7" cy="904.6" r="9.4"/>
			<circle class="st11" cx="828.6" cy="823.3" r="16.5"/>
			<circle class="st11" cx="753.8" cy="911.6" r="11.8"/>
			<circle class="st11" cx="796.4" cy="968.3" r="9.4"/>
			<circle class="st11" cx="810" cy="1017.2" r="15.3"/>
			<circle class="st11" cx="849.4" cy="1008.4" r="5.9"/>
			<circle class="st11" cx="824.1" cy="982.6" r="13"/>
			<circle class="st11" cx="889.9" cy="912.9" r="14.2"/>
			<circle class="st11" cx="884.2" cy="858.8" r="15.3"/>
			<circle class="st11" cx="909.8" cy="809.6" r="11.8"/>
			<circle class="st11" cx="926.1" cy="854" r="3.5"/>
			<circle class="st11" cx="905.5" cy="887.1" r="8.3"/>
			<circle class="st11" cx="875.4" cy="819.5" r="5.9"/>
			<circle class="st11" cx="867.6" cy="775.2" r="18.9"/>
			<circle class="st11" cx="792.4" cy="841.3" r="4.7"/>
			<circle class="st11" cx="842.2" cy="872.2" r="10.6"/>
			<circle class="st11" cx="790.7" cy="914.2" r="3.5"/>
			<circle class="st11" cx="753.1" cy="947.2" r="15.3"/>
			<circle class="st11" cx="759.3" cy="982.7" r="8.3"/>
			<circle class="st11" cx="781.3" cy="942.9" r="8.3"/>
			<circle class="st11" cx="767.9" cy="1015.1" r="9.4"/>
			<circle class="st11" cx="735.6" cy="860" r="20.1"/>
			<circle class="st11" cx="768.2" cy="875.4" r="5.9"/>
			<circle class="st11" cx="779.1" cy="896.4" r="8.3"/>
			<circle class="st11" cx="917" cy="954.3" r="14.2"/>
			<circle class="st11" cx="885.4" cy="942.6" r="5.9"/>
			<circle class="st11" cx="850.5" cy="930.2" r="7.1"/>
			<circle class="st11" cx="940.9" cy="921.8" r="11.8"/>
			<circle class="st11" cx="950.8" cy="874.5" r="13"/>
			<circle class="st11" cx="912.5" cy="910.8" r="5.9"/>
			<circle class="st11" cx="931" cy="895.9" r="5.9"/>
			<circle class="st11" cx="979.5" cy="916.3" r="11.8"/>
			<circle class="st11" cx="990.6" cy="887.9" r="5.9"/>
			<circle class="st11" cx="962.7" cy="899.1" r="7.1"/>
			<circle class="st11" cx="959.8" cy="823.5" r="17.7"/>
			<circle class="st11" cx="911.6" cy="833.9" r="7.1"/>
			<circle class="st11" cx="936.8" cy="794.8" r="7.1"/>
			<circle class="st11" cx="903.6" cy="774.2" r="9.4"/>
			<circle class="st11" cx="934.8" cy="763.7" r="13"/>
			<circle class="st11" cx="982.7" cy="860.7" r="11.8"/>
		</g>
		<g class="st10">
			<circle class="st11" cx="1090.6" cy="851.3" r="17.7"/>
			<circle class="st11" cx="1145.7" cy="937.9" r="18.9"/>
			<circle class="st11" cx="1098.5" cy="911" r="5.9"/>
			<circle class="st11" cx="1132.5" cy="878.9" r="9.4"/>
			<circle class="st11" cx="1110.4" cy="797.5" r="16.5"/>
			<circle class="st11" cx="1035.6" cy="885.8" r="11.8"/>
			<circle class="st11" cx="1078.3" cy="942.5" r="9.4"/>
			<circle class="st11" cx="1091.9" cy="991.4" r="15.3"/>
			<circle class="st11" cx="1131.2" cy="982.6" r="5.9"/>
			<circle class="st11" cx="1105.9" cy="956.9" r="13"/>
			<circle class="st11" cx="1171.7" cy="887.1" r="14.2"/>
			<circle class="st11" cx="1166" cy="833.1" r="15.3"/>
			<circle class="st11" cx="1191.7" cy="783.9" r="11.8"/>
			<circle class="st11" cx="1207.9" cy="828.2" r="3.5"/>
			<circle class="st11" cx="1187.3" cy="861.4" r="8.3"/>
			<circle class="st11" cx="1157.2" cy="793.7" r="5.9"/>
			<circle class="st11" cx="1149.4" cy="749.5" r="18.9"/>
			<circle class="st11" cx="1074.2" cy="815.5" r="4.7"/>
			<circle class="st11" cx="1124" cy="846.4" r="10.6"/>
			<circle class="st11" cx="1072.5" cy="888.5" r="3.5"/>
			<circle class="st11" cx="1034.9" cy="921.5" r="15.3"/>
			<circle class="st11" cx="1041.1" cy="956.9" r="8.3"/>
			<circle class="st11" cx="1063.1" cy="917.2" r="8.3"/>
			<circle class="st11" cx="1049.7" cy="989.4" r="9.4"/>
			<circle class="st11" cx="1017.4" cy="834.3" r="20.1"/>
			<circle class="st11" cx="1050" cy="849.7" r="5.9"/>
			<circle class="st11" cx="1060.9" cy="870.7" r="8.3"/>
			<circle class="st11" cx="1198.8" cy="928.6" r="14.2"/>
			<circle class="st11" cx="1167.2" cy="916.9" r="5.9"/>
			<circle class="st11" cx="1132.3" cy="904.4" r="7.1"/>
			<circle class="st11" cx="1222.7" cy="896.1" r="11.8"/>
			<circle class="st11" cx="1232.6" cy="848.7" r="13"/>
			<circle class="st11" cx="1194.3" cy="885" r="5.9"/>
			<circle class="st11" cx="1212.8" cy="870.2" r="5.9"/>
			<circle class="st11" cx="1261.3" cy="890.6" r="11.8"/>
			<circle class="st11" cx="1272.4" cy="862.2" r="5.9"/>
			<circle class="st11" cx="1244.5" cy="873.4" r="7.1"/>
			<circle class="st11" cx="1241.6" cy="797.8" r="17.7"/>
			<circle class="st11" cx="1193.4" cy="808.1" r="7.1"/>
			<circle class="st11" cx="1218.6" cy="769.1" r="7.1"/>
			<circle class="st11" cx="1185.4" cy="748.5" r="9.4"/>
			<circle class="st11" cx="1216.6" cy="738" r="13"/>
			<circle class="st11" cx="1264.5" cy="835" r="11.8"/>
		</g>
		<g class="st10">
			<circle class="st11" cx="472.6" cy="503.3" r="17.7"/>
			<circle class="st11" cx="527.8" cy="589.9" r="18.9"/>
			<circle class="st11" cx="480.6" cy="563" r="5.9"/>
			<circle class="st11" cx="514.6" cy="530.9" r="9.4"/>
			<circle class="st11" cx="492.4" cy="449.5" r="16.5"/>
			<circle class="st11" cx="417.6" cy="537.8" r="11.8"/>
			<circle class="st11" cx="460.3" cy="594.5" r="9.4"/>
			<circle class="st11" cx="473.9" cy="643.4" r="15.3"/>
			<circle class="st11" cx="513.3" cy="634.6" r="5.9"/>
			<circle class="st11" cx="488" cy="608.9" r="13"/>
			<circle class="st11" cx="553.8" cy="539.1" r="14.2"/>
			<circle class="st11" cx="548.1" cy="485.1" r="15.3"/>
			<circle class="st11" cx="573.7" cy="435.9" r="11.8"/>
			<circle class="st11" cx="590" cy="480.2" r="3.5"/>
			<circle class="st11" cx="569.4" cy="513.4" r="8.3"/>
			<circle class="st11" cx="539.3" cy="445.7" r="5.9"/>
			<circle class="st11" cx="531.5" cy="401.5" r="18.9"/>
			<circle class="st11" cx="456.3" cy="467.5" r="4.7"/>
			<circle class="st11" cx="506" cy="498.4" r="10.6"/>
			<circle class="st11" cx="454.6" cy="540.5" r="3.5"/>
			<circle class="st11" cx="417" cy="573.5" r="15.3"/>
			<circle class="st11" cx="423.2" cy="608.9" r="8.3"/>
			<circle class="st11" cx="445.2" cy="569.2" r="8.3"/>
			<circle class="st11" cx="431.7" cy="641.4" r="9.4"/>
			<circle class="st11" cx="399.5" cy="486.3" r="20.1"/>
			<circle class="st11" cx="432" cy="501.6" r="5.9"/>
			<circle class="st11" cx="443" cy="522.7" r="8.3"/>
			<circle class="st11" cx="580.9" cy="580.6" r="14.2"/>
			<circle class="st11" cx="549.2" cy="568.9" r="5.9"/>
			<circle class="st11" cx="514.3" cy="556.4" r="7.1"/>
			<circle class="st11" cx="604.7" cy="548.1" r="11.8"/>
			<circle class="st11" cx="614.7" cy="500.7" r="13"/>
			<circle class="st11" cx="576.4" cy="537" r="5.9"/>
			<circle class="st11" cx="594.8" cy="522.2" r="5.9"/>
			<circle class="st11" cx="643.4" cy="542.6" r="11.8"/>
			<circle class="st11" cx="654.5" cy="514.2" r="5.9"/>
			<circle class="st11" cx="626.5" cy="525.4" r="7.1"/>
			<circle class="st11" cx="623.7" cy="449.8" r="17.7"/>
			<circle class="st11" cx="575.4" cy="460.1" r="7.1"/>
			<circle class="st11" cx="600.7" cy="421.1" r="7.1"/>
			<circle class="st11" cx="567.5" cy="400.5" r="9.4"/>
			<circle class="st11" cx="598.7" cy="390" r="13"/>
			<circle class="st11" cx="646.5" cy="487" r="11.8"/>
		</g>
		<g class="st10">
			<circle class="st11" cx="459.1" cy="768.8" r="17.7"/>
			<circle class="st11" cx="514.2" cy="855.4" r="18.9"/>
			<circle class="st11" cx="467" cy="828.4" r="5.9"/>
			<circle class="st11" cx="501" cy="796.4" r="9.4"/>
			<circle class="st11" cx="478.9" cy="715" r="16.5"/>
			<circle class="st11" cx="404.1" cy="803.3" r="11.8"/>
			<circle class="st11" cx="446.8" cy="860" r="9.4"/>
			<circle class="st11" cx="460.4" cy="908.9" r="15.3"/>
			<circle class="st11" cx="499.7" cy="900.1" r="5.9"/>
			<circle class="st11" cx="474.5" cy="874.3" r="13"/>
			<circle class="st11" cx="540.2" cy="804.6" r="14.2"/>
			<circle class="st11" cx="534.5" cy="750.5" r="15.3"/>
			<circle class="st11" cx="560.2" cy="701.4" r="11.8"/>
			<circle class="st11" cx="576.5" cy="745.7" r="3.5"/>
			<circle class="st11" cx="555.9" cy="778.9" r="8.3"/>
			<circle class="st11" cx="525.7" cy="711.2" r="5.9"/>
			<circle class="st11" cx="518" cy="666.9" r="18.9"/>
			<circle class="st11" cx="442.7" cy="733" r="4.7"/>
			<circle class="st11" cx="492.5" cy="763.9" r="10.6"/>
			<circle class="st11" cx="441.1" cy="805.9" r="3.5"/>
			<circle class="st11" cx="403.4" cy="839" r="15.3"/>
			<circle class="st11" cx="409.7" cy="874.4" r="8.3"/>
			<circle class="st11" cx="431.6" cy="834.7" r="8.3"/>
			<circle class="st11" cx="418.2" cy="906.9" r="9.4"/>
			<circle class="st11" cx="385.9" cy="751.8" r="20.1"/>
			<circle class="st11" cx="418.5" cy="767.1" r="5.9"/>
			<circle class="st11" cx="429.4" cy="788.2" r="8.3"/>
			<circle class="st11" cx="567.3" cy="846.1" r="14.2"/>
			<circle class="st11" cx="535.7" cy="834.3" r="5.9"/>
			<circle class="st11" cx="500.8" cy="821.9" r="7.1"/>
			<circle class="st11" cx="591.2" cy="813.6" r="11.8"/>
			<circle class="st11" cx="601.1" cy="766.2" r="13"/>
			<circle class="st11" cx="562.8" cy="802.5" r="5.9"/>
			<circle class="st11" cx="581.3" cy="787.6" r="5.9"/>
			<circle class="st11" cx="629.9" cy="808" r="11.8"/>
			<circle class="st11" cx="640.9" cy="779.7" r="5.9"/>
			<circle class="st11" cx="613" cy="790.9" r="7.1"/>
			<circle class="st11" cx="610.1" cy="715.2" r="17.7"/>
			<circle class="st11" cx="561.9" cy="725.6" r="7.1"/>
			<circle class="st11" cx="587.2" cy="686.5" r="7.1"/>
			<circle class="st11" cx="554" cy="665.9" r="9.4"/>
			<circle class="st11" cx="585.2" cy="655.4" r="13"/>
			<circle class="st11" cx="633" cy="752.4" r="11.8"/>
		</g>
		<g class="st10">
			<circle class="st11" cx="750.4" cy="245.8" r="17.7"/>
			<circle class="st11" cx="702.4" cy="155" r="18.9"/>
			<circle class="st11" cx="747.3" cy="185.7" r="5.9"/>
			<circle class="st11" cx="710.8" cy="214.9" r="9.4"/>
			<circle class="st11" cx="726.3" cy="297.8" r="16.5"/>
			<circle class="st11" cx="808" cy="215.9" r="11.8"/>
			<circle class="st11" cx="770.1" cy="155.9" r="9.4"/>
			<circle class="st11" cx="760.4" cy="106.1" r="15.3"/>
			<circle class="st11" cx="720.5" cy="111.7" r="5.9"/>
			<circle class="st11" cx="743.6" cy="139.4" r="13"/>
			<circle class="st11" cx="672.4" cy="203.6" r="14.2"/>
			<circle class="st11" cx="673.7" cy="257.9" r="15.3"/>
			<circle class="st11" cx="644.2" cy="304.9" r="11.8"/>
			<circle class="st11" cx="631.6" cy="259.4" r="3.5"/>
			<circle class="st11" cx="654.8" cy="227.9" r="8.3"/>
			<circle class="st11" cx="679.3" cy="297.9" r="5.9"/>
			<circle class="st11" cx="683.5" cy="342.6" r="18.9"/>
			<circle class="st11" cx="763.8" cy="282.8" r="4.7"/>
			<circle class="st11" cx="716.7" cy="248" r="10.6"/>
			<circle class="st11" cx="771.4" cy="210.2" r="3.5"/>
			<circle class="st11" cx="811.5" cy="180.4" r="15.3"/>
			<circle class="st11" cx="808.2" cy="144.6" r="8.3"/>
			<circle class="st11" cx="783.1" cy="182.4" r="8.3"/>
			<circle class="st11" cx="802.3" cy="111.5" r="9.4"/>
			<circle class="st11" cx="821.9" cy="268.7" r="20.1"/>
			<circle class="st11" cx="790.7" cy="250.8" r="5.9"/>
			<circle class="st11" cx="781.5" cy="228.9" r="8.3"/>
			<circle class="st11" cx="648.8" cy="160" r="14.2"/>
			<circle class="st11" cx="679.3" cy="174.3" r="5.9"/>
			<circle class="st11" cx="713.1" cy="189.5" r="7.1"/>
			<circle class="st11" cx="622.3" cy="190.5" r="11.8"/>
			<circle class="st11" cx="608.6" cy="236.9" r="13"/>
			<circle class="st11" cx="649.7" cy="203.8" r="5.9"/>
			<circle class="st11" cx="630.1" cy="217.2" r="5.9"/>
			<circle class="st11" cx="583.4" cy="192.9" r="11.8"/>
			<circle class="st11" cx="570" cy="220.3" r="5.9"/>
			<circle class="st11" cx="598.8" cy="211.4" r="7.1"/>
			<circle class="st11" cx="595.5" cy="287" r="17.7"/>
			<circle class="st11" cx="644.4" cy="280.6" r="7.1"/>
			<circle class="st11" cx="616.1" cy="317.4" r="7.1"/>
			<circle class="st11" cx="647.5" cy="340.6" r="9.4"/>
			<circle class="st11" cx="615.6" cy="348.6" r="13"/>
			<circle class="st11" cx="575.7" cy="248.1" r="11.8"/>
		</g>
		<circle class="st12" cx="971.9" cy="496.4" r="10.6"/>
		<circle class="st12" cx="931.7" cy="536" r="7.1"/>
		<circle class="st12" cx="918.1" cy="588.7" r="14.2"/>
		<circle class="st12" cx="922" cy="623.9" r="8.3"/>
		<circle class="st12" cx="910.4" cy="561" r="4.7"/>
		<circle class="st12" cx="1147.7" cy="647.2" r="14.2"/>
		<circle class="st12" cx="1185.9" cy="641.9" r="5.9"/>
		<circle class="st12" cx="1173.8" cy="686.4" r="18.3"/>
		<circle class="st12" cx="1107.7" cy="714.4" r="8.3"/>
		<circle class="st12" cx="1137.1" cy="702.2" r="13"/>
		<circle class="st12" cx="1145" cy="672.5" r="5.9"/>
		<circle class="st12" cx="1198.2" cy="663.7" r="5.9"/>
		<circle class="st12" cx="1163.2" cy="617.6" r="7.1"/>
		<circle class="st12" cx="1163.6" cy="591.5" r="3.5"/>
		<circle class="st12" cx="1223.1" cy="518.6" r="9.4"/>
		<circle class="st12" cx="1089.9" cy="491.7" r="9.4"/>
		<circle class="st12" cx="1085.9" cy="467.7" r="7.1"/>
		<circle class="st12" cx="1049.4" cy="503.7" r="8.3"/>
		<circle class="st12" cx="653" cy="378.9" r="8.3"/>
		<circle class="st12" cx="629.3" cy="410.6" r="10.6"/>
		<circle class="st12" cx="638.1" cy="378.7" r="5.9"/>
		<circle class="st12" cx="847.3" cy="321.1" r="16.5"/>
		<circle class="st12" cx="892" cy="368.1" r="5.9"/>
		<circle class="st12" cx="811.2" cy="338.4" r="9.4"/>
		<circle class="st12" cx="726.2" cy="334.6" r="8.3"/>
		<circle class="st12" cx="875.3" cy="344.7" r="8.3"/>
		<circle class="st12" cx="553.3" cy="622.7" r="14.2"/>
		<circle class="st12" cx="623.5" cy="576.2" r="8.3"/>
		<circle class="st12" cx="598.4" cy="601.1" r="7.1"/>
		<circle class="st12" cx="902" cy="744.4" r="5.9"/>
		<circle class="st12" cx="928.4" cy="726.2" r="8.3"/>
		<circle class="st12" cx="876" cy="736.5" r="7.1"/>
		<circle class="st12" cx="780.8" cy="804.3" r="15.3"/>
		<circle class="st12" cx="824.2" cy="794.6" r="10.6"/>
		<circle class="st12" cx="738.1" cy="815.5" r="11.8"/>
		<circle class="st12" cx="764.6" cy="832.4" r="9.4"/>
		<circle class="st12" cx="753" cy="773.2" r="14.2"/>
		<circle class="st12" cx="686" cy="718.3" r="8.3"/>
		<circle class="st12" cx="678.5" cy="760.7" r="20.1"/>
		<circle class="st12" cx="715.9" cy="757.7" r="7.1"/>
		<circle class="st12" cx="710.1" cy="791.9" r="8.3"/>
		<circle class="st12" cx="650.8" cy="725.9" r="10.6"/>
	</g>
	<path class="st12" d="M1920,961.6v453.9c-1.3,0.7-2.7,1.4-4,2.1V965.5C1917.3,964.1,1918.7,962.8,1920,961.6z"/>
	<rect x="1038" y="1896" class="st10" width="790" height="594"/>
	<rect x="99" y="1896" class="st10" width="790" height="594"/>
	<rect x="455" y="1629" class="st9" width="1010" height="107"/>
	<text transform="matrix(1 0 0 1 455 1704.1143)" class="st10 st14 st15">Разработаем сайт</text>
	<rect x="234.6" y="1764.1" class="st9" width="456.4" height="101.1"/>
	<text transform="matrix(1 0 0 1 234.6172 1839.2207)" class="st10 st14 st15">Строгий</text>
	<rect x="1207.9" y="1768.8" class="st9" width="566.8" height="110.3"/>
	<text transform="matrix(1 0 0 1 1207.8936 1843.9014)" class="st10 st14 st15">Броский</text>
	<rect x="865.7" y="1773.3" class="st9" width="263.5" height="82.7"/>
	<text transform="matrix(1 0 0 1 865.7446 1848.4121)" class="st10 st14 st15">или</text>
	<path class="st13" d="M1920,2544.8v102.8c-1.3-0.4-2.7-0.8-4-1.1v-103.1C1917.3,2543.9,1918.7,2544.4,1920,2544.8z"/>
	<path class="st13" d="M1920,2729.3v112.8c-1.3-0.5-2.7-1-4-1.4v-112.2C1917.3,2728.7,1918.7,2729,1920,2729.3z"/>
	<path class="st13" d="M1920,2941.6v119.9c-1.3-1.2-2.7-2.4-4-3.5v-118.1C1917.3,2940.4,1918.7,2941,1920,2941.6z"/>
	<path class="st13" d="M1920,2084v30.1c-1.3-0.2-2.7-0.3-4-0.5v-30.7C1917.4,2083.2,1918.7,2083.6,1920,2084z"/>
</g>
<g id="Слой_5" class="st0">
	<rect x="72" y="1070.2" class="st9" width="1670.5" height="290"/>
	<text transform="matrix(1 0 0 1 72 1145.2627)" class="st10"><tspan x="0" y="0" class="st14 st15">Мы предоставим лучшие      </tspan><tspan x="0" y="80" class="st14 st15">решения для вашего бизнеса</tspan></text>
</g>
<g id="_x31__стр_надписями">
	<g class="st0">
		<g class="st10">
			<path class="st16" d="M894.1,907.8c-0.3-30.2,3.9-65.5-3.9-95.1c16-9.3,32.4-17.6,49.1-25.6c3.2,11.3,3.4,12.2,5.1,19.5
				c-12.4,3.1-24.7,6.5-36.9,10.2c0.9,4.5,1.3,7.2,2.2,13.7c1.7-0.2,2.5-0.2,4.3-0.4c8.8-0.8,17.2-0.5,24.3,1.4
				c7,1.9,13.7,6.4,19.7,14.2c6.9,9,10,20.3,11.3,30.6c1.1,8.9,1.5,20-2.6,29c-3,6.6-7.8,11.3-14,13.9c-6.2,2.6-15.1,1.7-25.8-1.9
				C916.1,913.9,905.2,910.6,894.1,907.8z M911.6,847.1c1.1,11.9,1.9,23.9,2.6,35.8c2.2,0.5,3.3,0.8,5.6,1.3
				c10.4,2.5,17.7,2.6,20.4-0.3c2.7-3,3.5-7.9,3.1-13.6c-1-14.3-14.3-22.1-27.4-22.9C914.1,847.2,913.3,847.2,911.6,847.1z"/>
			<path class="st16" d="M1027.4,754.8c12.1-3.4,24.3-6.5,36.7-9.2c28.5,76.9,38.5,156.7,37.4,238.5c-9.8,2.7-14.6,4-23.8,6.3
				c-0.9-18.6-2.3-37.2-4.2-55.8c-14.3,4.1-37.4-12.9-49.6-18.5c-2.6,14.6-5.1,29.2-7.6,43.9c-9.2-6-18.7-11.3-28.2-16.6
				C1000.9,880.7,1016.1,817.9,1027.4,754.8z M1048.3,805c-6.6,23.9-12.3,48-17.4,72.2c12,3.2,24,6.4,36,9.6
				C1062.8,859.1,1057.2,831.7,1048.3,805z"/>
			<path class="st16" d="M1145.5,908.4c0.9,9.1,5.6,24.8,18,22c6.4-1.5,13-5.9,19.7-12.7c6.6-6.8,12.8-16.3,16.5-25
				c4-9.6,5.5-17.3,3.7-23.3c-1.8-6-9.9-8.6-24.5-7.5c-2.8,0.2-4.2,0.3-7,0.6c4.3-13.6,8.7-27.3,13-40.9c3.1-0.1,4.6-0.2,7.7-0.3
				c9.4-0.3,17.4-3.1,24.2-8.4c6.8-5.3,12.1-12.3,15.6-21.1c3.2-8.1,3.5-14.4,0.9-19.2c-2.6-4.8-7.8-7.5-15.1-7.5
				c-11.7-0.1-23,7-31.8,14.4c-5.5-9.7-11.2-18.5-17.7-27.6c12.4-9,25-20,39.6-24.3c9.4-2.8,18.4-3.7,25.8-3.2
				c14.6,0.9,30.5,7.5,37.9,20.9c7.3,13.1,4.2,29.6-2.1,42.4c-3.6,7.4-8.3,15.2-13.9,22.4c-7.8,9.8-18.6,16.7-29,23.7
				c19.8,14.5,8.6,40.3,0.2,57.2c-9.6,19.4-23.6,37.7-38.7,53.5c-11.9,12.4-24.9,25.7-41.2,31.7c-7.8,2.9-14.5,2.3-18.7-1.9
				c-7.9-7.9-9.5-22.9-12.1-34C1125.8,929.2,1135.5,918.7,1145.5,908.4z"/>
			<path class="st16" d="M1287.4,887.1c19.2-46.2,30.7-94.9,33.7-144.8c12.1,2.4,24.1,5.1,36,8.2c-5.9,34.6-16,67.5-29.8,99.8
				c28.9-27.4,59-53.8,87-82.1c8.6,3.1,12.4,4.6,19.2,7.2c-35.6,32.7-73.2,63.2-109.7,94.8c-17,14.8-34,29.8-51.7,43.6
				c-10.1,7.9-21.4,15.7-31.6,22.1c-11.5,7.1-21.4-0.1-19.7-13.3c10.9-10.3,21.9-20.4,33.3-30.1c0.1,9.8,3.3,12.9,10.1,10.7
				c3-1,6.2-2.7,9.5-5.2C1277,895.6,1281.6,891.9,1287.4,887.1z"/>
		</g>
	</g>
	<g class="st0">
		<g class="st10">
			<path class="st17" d="M895.9,637.2c4.2-0.9,6.5-1.2,11.3-1.7c-14.1,7.1-25.2,14.8-16.5,31.8c0.4-20,18.2-27.5,34.5-33.1
				c6.3-0.3,9.6-0.4,16.1-0.7c-27.9,8.8-36.7,18.8-36.6,47c14.3,30.2,19.3,65.5,38.9,93.2c-4.5,1.9-6.7,2.9-11,4.7
				c-15.1-21.4-23.1-47.4-30.9-72.1c3.7,27.2,6.2,52.5,17,78.2c-3.3,1.5-4.9,2.2-8.1,3.7c-12.8-30.7-13.6-61.5-22-93.2
				C882,669.8,864.8,651.2,895.9,637.2z"/>
			<path class="st17" d="M986.1,756.3c-16.1-33-15.2-71.3-29.4-105.4c-3.2,19.3,2,39.4-0.4,58.9c-2.5,20.3-3.1,38.5-1.2,59
				c-4.2,1.8-6.3,2.6-10.4,4.4c-4.2-30.3,1.4-58.2,0.1-88.3c-1.2-28.1-3.6-42.6,26.6-53.6c4.7-0.6,6.9-0.9,11.1-1.6
				c-25.4,12.1-9.5,26-3.3,47.2c7.3,25.3,6.9,50.5,19,74.6C993.2,753.5,990.8,754.4,986.1,756.3z"/>
			<path class="st17" d="M1038.2,610.7c-22.8,6.4-3.7,33.6-0.2,46.5c6.6,24.7,6.7,49.7,14.8,74.2c-5.3,1.8-7.9,2.7-13,4.6
				c-10-30.3-6.6-63-18.5-92.6c3.1,34.1-3.4,67.5-5.9,101.5c-4.2,1.6-6.3,2.4-10.3,3.9c-6.6-25.8-4.1-51.1-8.7-77
				c-4-22.4-14.8-36.3,10.5-48c3.4-1.1,5.1-1.7,8.3-2.9c-28.2,14.1-7,48.2-5.3,74c3.6-30.5-9.8-63.9,21.3-80.9
				C1034,612.7,1035.4,612,1038.2,610.7z"/>
			<path class="st17" d="M1048.5,605.6c9.4-4.7,18.9-9.3,28.5-13.7c-6.7,3.7-8.6,8.7-7.5,14.4c-8.9,3.6-13,5.3-20.8,8.6
				c0.8,5.3,2.6,7.6,6.2,15.4c8.1-3.1,12.3-4.6,21.2-7.9c4.4,9,6.9,18.3,9.5,28c-8.8,3.1-13,4.7-21.3,7.7
				c2.4,13.1,3.8,26.5,6.7,39.5c8.6-3,12.8-4.4,21.4-7.3c2.8,11.9,4.9,17.6,7.7,25c-10.9,3.7-21.8,7.4-32.7,11.1
				c-8.6-24.3-9.3-49.4-16.4-73.9C1047.5,640.2,1027.3,612.9,1048.5,605.6z"/>
			<path class="st17" d="M1087.9,587c5.1-2.2,7.7-3.3,13.4-5.6c-12.8,8.8-4.7,22.9-0.3,33.6c9.4-3.1,14.4-4.7,25.1-7.9
				c-3.7-12-10.1-26.3,2.3-35.9c6.9-2.4,10.5-3.7,18.3-6.2c-16.4,12.9-3.2,40.2-0.7,56.3c4,25.8,2.4,52.3,5.2,78.4
				c-4.4,1.2-6.6,1.8-10.9,3c-4.3-21.8-5.3-43.3-7.3-65.4c-9.8,2.9-14.5,4.4-23.4,7.4c3.2,21.6,5.2,42.8,11.7,63.7
				c-4.4,1.4-6.6,2.1-11.1,3.5c-7.9-24.6-9-50.2-16.1-74.9C1090.5,624.1,1070.7,597.5,1087.9,587z"/>
			<path class="st17" d="M1158.8,561.2c14.6-4.4,29.3-8.5,44.1-12.3c-6.4,6-8.5,11.4-9.4,19.3c-5.6,1.2-8.4,1.9-14,3.2
				c-0.9,19.5,4.1,39,3.6,58.6c-0.5,20.9-2.5,41.9-3.4,62.8c-4.4,0.9-6.6,1.4-11,2.5c-0.2-20.8,1.2-41.5,1.1-62.2
				c-0.1-19.5-5.8-38.5-5.6-57.9c-5.6,1.5-8.5,2.2-14.2,3.8C1150.2,571.8,1152.3,566.5,1158.8,561.2z"/>
			<path class="st17" d="M1266.6,553.9c-4.9,6.5-7.1,9.7-11.1,16.7c-4.3-11.7-9.5-15.5-17.2-14.2c-6.5,1.1-12.8,5.6-17.8,13.9
				c-6.4,10.8-6.2,23.5-6.1,35.5c0.1,10.3,0,21.1,0.6,31.5c0.4,7.8,2,14.4,3.8,18.9c1.8,4.5,4.2,6.8,7.2,6.4
				c2.6-0.3,5.2-2.4,8.1-6.2c2.9-3.8,7-10.6,12.3-19.9c0.3,8.6,0.2,13.3,0.6,22.3c-4.5,8.1-8.9,17-15.4,23.7
				c-3.8,4-7.5,5.9-10.8,6.3c-6.1,0.8-10.7-3.1-15.5-17.5c-6.6-20-3.5-42.4-4.1-63.2c-0.4-12.5-1.4-25.6,3.2-37.5
				c3.6-9.2,12.5-18.8,20.7-23.6c9.3-5.4,18.1-9,24.9-10.3c5.7-1.2,9.5-0.8,11.9,1.8C1264.2,541.1,1265,546.8,1266.6,553.9z"/>
			<path class="st17" d="M1287.4,532c4.7-0.7,7.1-1.1,11.6-1.7c-8.6,14.1-11.6,26.8-14.3,43c8.3-16.8,17-31.4,29.8-45.1
				c5-0.6,7.5-1,12.2-1.5c-16,18.5-26,39.3-35.6,61.7c2,31-1.2,63-5.9,93.7c-5,0-7.4,0-12.2,0.1c3.5-23.9,5.8-49,6.3-73.1
				c-5.5,24.4-12.9,50.3-22,73.7c-3.8,0.2-5.7,0.3-9.3,0.6c9-27.1,18.3-55.7,22-84.1C1273,576.9,1272.5,550.1,1287.4,532z"/>
			<path class="st17" d="M1322.2,646c3.6-23,5.5-45.5,5.3-68.7c-0.1-16.8-2.4-35.2,4-51.2c4.3-0.5,6.4-0.7,10.4-1.2
				c-8.3,25.1-0.8,56.4-1.5,82.5c9.5-29.2,17.8-59,33.1-85.8c6-0.5,8.9-0.8,14.7-1.2c-20.3,36.7-29.6,78.1-47.8,115.9
				c-7.1,14-13.9,29.8-24.8,41.1c-5.7,5.9-10.5,8.3-14.1,8.2c-5.8-0.3-7.9-6-7.3-21.6c5.5-8.1,8.2-12.5,14-21.5
				c-0.7,10.5,0.8,15.3,3.6,15.3c1.3,0,2.7-0.8,4.1-2.6C1317.4,653.3,1319.4,650.5,1322.2,646z"/>
			<path class="st17" d="M1398.2,576c3.7,0.2,5.6,0.3,9.3,0.5c6.6-17.1,13.1-36,25.6-49.8c7.8-8.7,14.8-12.9,20.8-13
				c12-0.2,16.9,15.9,19.6,23.9c7.6,22,5.5,47.9,1.4,71.3c-4.4,25.7-14.6,53.9-32.5,72.7c-9.7,10.2-22.8,22-38.7,19
				c-12-2.3-14.1-16.3-15.2-25.4c-2.5-20.5,5.8-43.7,10.9-64.7c-3.7-0.3-5.5-0.4-9.2-0.7c-7.9,26.6-17.5,53.3-30.2,78.1
				c-5.1-0.8-7.6-1.1-12.6-1.7c13.5-28.5,25-58.3,32.1-89c6-25.7,8.8-52.5,17.7-77.4c5.5-0.4,8.2-0.5,13.5-0.8
				C1405,537.5,1402,556.9,1398.2,576z M1461.9,606.2c3.4-14.6,4.1-30.8,1.1-45.6c-2.5-12.3-7-18-13.3-18.3
				c-5.9-0.2-11.8,4.6-18.2,14.7c-8.2,13-12.3,28.6-15.8,43.1c-3.8,15.6-8,32.3-7.8,48.7c0.2,13.1,3.7,19.5,10,20.6
				c10.2,1.8,18.8-9.2,23.9-15.6C1452.3,640.6,1457.9,623.3,1461.9,606.2z"/>
		</g>
	</g>
	<g class="st0">
		<g class="st10">
			<path class="st18" d="M400.7,533.3c2.7,0.4,4.2,0.6,7.4,1.1c4.3,0.6,7.5,1.5,8.4,2.5c1,1.1,0.6,2.6-2.6,5.4
				c-3.1,2.8-8.9,6.7-17.8,12.3c-9.4,5.9-18.9,11.6-28.7,16.8c-8.8,4.7-15.9,8-21.3,9.4c-3.1,0.8-6.8,0.7-10.6-0.4
				c-18,17.7-30.4,32.9-27.7,58.8c-2.2-0.3-3.2-0.4-5-0.7C296.3,585.2,359.3,552.2,400.7,533.3z M362.7,559.8c1,0.2,1.5,0.4,2.5,0.6
				c2,0.5,4,0.5,5.9,0c1.9-0.5,4.2-1.4,7-2.8c2.8-1.4,5.8-3.1,9-5c5.4-3.3,8.3-5.5,9.1-7c0.6-1.1-0.4-1.9-2.9-2.3
				c-0.9-0.2-1.3-0.2-2.2-0.4C381.4,548,372.1,553.8,362.7,559.8z"/>
			<path class="st18" d="M453.6,542.8c4.8,1.1,7.3,1.6,12.4,2.8c-21.5,33-91.3,63.1-86.1,108.8c-5.1-1.5-7.6-2.1-12.5-3.4
				c-2-10-1.4-14.9,5.1-25.3c-10.5-3.3-15.5-4.7-24.6-7.2c-6.4,5.9-11.9,16.4-12,25.4c-3.9-0.7-5.7-1.1-9.2-1.7
				c-0.4-28.7,33.8-48.3,54.7-61.6C404.1,566.2,428.4,552.4,453.6,542.8z M434.6,560.7c-20.6,10.9-40.6,22.6-60,35.7
				c6.6,1.9,10,2.9,17.2,5.2C405.4,587.2,419.8,573.8,434.6,560.7z"/>
			<path class="st18" d="M566.9,594.3c-9.2,2.3-18.4,5-27.4,7.8c1.8-9,3.4-20.8-8.4-24.5c-9.9-3.1-21.5-1.1-31.3,1.7
				c-15.9,4.5-31.4,14.5-44.4,24.5c-8.7,6.6-17.6,14.1-24.5,23.1c-5.4,7-7.6,12.8-7.2,17.5c0.4,4.7,3.5,7.9,8.4,10
				c4.2,1.8,9,2.5,15.2,2.2c9.6-0.6,19-3.6,28.3-6.1c-4.2,8.2-6.1,12.1-9,18.8c-15.3,3.2-20.2,5.2-26.2,5.3
				c-6.1,0.1-11.6-1.1-17.6-3.4c-10.6-3.9-20.1-12.6-21.4-24.3c-2-17.9,28.3-39.8,39.5-48.3c13.6-10.4,28.9-20.1,44.8-27.4
				c10.2-4.6,21.4-8.3,32.7-8.5c9.3-0.1,16.6,2,24.6,4.8c6.8,2.4,13.3,5.3,18.3,9.4C566.1,581.1,568.8,586.4,566.9,594.3z"/>
			<path class="st18" d="M517.8,698.4c25.4-13.6,48.8-29.9,71.4-47.7c15-11.9,33.9-25,44.9-41.1c6.8,3.8,10.3,5.7,17.2,9.8
				c-10.6,16.5-29.9,30.1-45,42.1c-23,18.2-46.8,34.6-73.1,47.7c8.7,6.4,13,9.7,21.6,16.8c27.4-12.4,52.2-29,75.6-47.8
				c15.5-12.4,35.1-26.2,45.2-43.6c6.9,4.6,10.3,6.9,17.2,11.9c-12.9,22.9-40.4,41.5-61,56.7c-24.2,17.8-51.7,34.6-79.8,45.3
				c-25.8-23.1-53.4-42.5-83.8-59.1c16.8-21.1,44.4-34.5,66-50.6c20.1-15,43.3-30.2,59.2-49.7c6.8,3.1,10.2,4.7,17,8.1
				c-27,36.1-76.1,65.1-114.1,87.6C504.9,689.9,509.2,692.7,517.8,698.4z"/>
			<path class="st18" d="M774.7,718.8c-14.8,25.4-43.5,45.9-67.1,62.4c-27,18.8-62.4,38.8-96.2,40.5c-3.5-5.9-5.4-8.9-9.3-14.8
				c42.3-3.2,85-35.3,116.4-60.8c-41.7,18-91.7,38.8-138.3,31.9c-4.3-5.1-6.6-7.7-11.3-12.7c29.4-8.7,58.3-26.8,82.7-44.9
				c20.8-15.5,49.2-35.1,61.4-58.8c6.7,5.3,10,8,16.6,13.6c-16.3,33.6-61.4,61.1-91.4,79.9c26.2-8.3,51.3-18.6,76.2-30
				c15.1-6.9,31.2-16.8,47.7-19.7C767.2,710.8,769.8,713.5,774.7,718.8z"/>
			<path class="st18" d="M791.3,737.8c5.6,6.7,8.2,10.1,13.3,16.8c6.9,9,11.1,16,12.8,21.3c1.7,5.4,1.8,11-1.4,18.2
				c-4.5,10-12.9,18.1-20.6,24.8c-10.6,9.2-23.7,18-37.4,22c-8.9,2.6-19.6,5.2-29.1,1.5c-4.2-1.6-8.5-6.5-13.5-14.7
				c-25.5,13.5-57.6,28.3-87.5,26.2c-2.6-5.7-3.9-8.6-6.9-14.5c35.2,0.4,72.6-19.4,101-38.5C746.5,784.2,775.6,763.4,791.3,737.8z
				 M755.6,800.6c1.4,2,2,3.1,3.4,5.1c2.6,4,5,6.2,7.4,6.7c2.3,0.5,5.3,0,8.8-1.5c3.5-1.5,7.3-3.9,11-7.2
				c6.6-5.7,9.8-10.8,10.5-15.6c0.6-3.5-0.9-7.7-4.4-12.6c-1.3-1.8-1.9-2.7-3.2-4.5C778.6,781.7,767.3,791.2,755.6,800.6z"/>
			<path class="st18" d="M863.6,856.2c-47.8,58.3-135.4,104.8-211.1,86.9c-0.5-4.4-0.8-6.6-1.6-11.2
				c54.6,15.2,112.4-14.1,155.9-44.1C758,910.2,699,929.2,646.2,907.9c-1.1-4.4-1.6-6.7-2.9-11.3c65.4,14,156.1-43.5,192.8-95.1
				c3.5,6,5.2,9,8.4,14.9c-27.6,37.3-73.9,64.7-115.4,82.7c29.1-7.2,56.2-17.4,83-31c15.2-7.7,30.3-18.1,46.5-23.4
				C860.7,849.4,861.7,851.7,863.6,856.2z"/>
			<path class="st18" d="M867.3,865.2c4.5,11.4,8.6,23,12.2,34.7c-3.1,3.5-7,7.6-18,17.2c-1.3-4.1-1.9-6.2-3.4-10.6
				c-55.1,48.6-129.5,85.7-203.6,62.4c-0.1-3.5-0.2-5.4-0.5-9.3c72.9,20.9,146.5-17,199.9-65.1c-1.6-4.5-2.5-6.9-4.3-11.7
				C860.4,873.2,864.2,869,867.3,865.2z"/>
			<path class="st18" d="M654.7,981.9c81.8,28.6,170.6-14.2,226.8-74.8c1.2,4.1,1.7,6.1,2.7,9.8c-16.1,17-35,31-54.2,44.1
				c0.2,0.8,0.3,1.2,0.5,1.9c1,3.6-0.4,7.9-4.3,12.6c-6.9,8.3-17.1,14.2-26.2,19.6c-17.1,10.1-37.6,16.1-56.7,18.5
				c-18,2.2-37.3,1.6-55.5-3.7c-11.1-3.3-20.2-7.5-25.5-10.7c-5.3-3.2-7.9-6-7.8-8.1C654.6,987.9,654.7,986,654.7,981.9z
				 M785.6,984.8c-28.3,10.9-55.4,16.4-85.8,14.8c0.1,0.7,0.1,1.1,0.2,1.8c0.3,3,3.9,5.2,10.6,6.4c11,1.9,22.8,1.5,33.5-0.5
				c9.3-1.7,40.9-6.1,41.9-20.8C785.9,985.8,785.8,985.5,785.6,984.8z"/>
		</g>
	</g>
	<g>
		<g>
			<path class="st19" d="M407.2,480.1c-15.8-21.2-26-43.8-38.9-66.6c9.1-2.4,18.4-4.5,27.7-6.3c7.3,17.2,13.9,34.5,22.3,51.2
				c8-20,16.6-40.2,28.1-58.5c8.6-0.8,12.7-1,20.8-1.4c-13.8,23.5-23.5,49.7-32.5,75.3c-3.6,8.3-7.3,18.1-15.9,22.7
				c-6.5,3.4-14,5.1-22.5,5.3c-14,0.4-28-2.4-40.7-8.3c7-4.6,10.4-7.1,17.2-12.3c7.3,4.3,14.5,6.2,21.2,5.8c3-0.2,5.4-0.8,7.2-1.8
				C402.7,484.2,404.8,482.5,407.2,480.1z"/>
			<path class="st19" d="M486.7,477.9c6.8,7.9,14.2,12.2,21.4,13.1c4.8,0.6,8.2-0.1,10.4-2.5c2.2-2.3,2.6-5.8,1.7-10.6
				c-1-4.6-3-8.7-6.1-12.2c-3.1-3.4-8.7-5.7-17.4-6.4c-1.7-0.1-2.5-0.2-4.2-0.3c-0.9-7.7-1.2-11.6-1.4-19.6c1.6,0.1,2.5,0.1,4.1,0.3
				c5,0.3,8.6-0.7,11-3.2c2.4-2.5,3.4-5.9,3.4-10c-0.1-3.8-1.1-7.2-3.1-9.7c-2-2.5-4.6-3.8-8-4c-4-0.2-8.2,1.9-12.8,6.5
				c-4.4-5.8-6.5-8.5-10.6-13.3c6.5-5.4,11.7-8,15.5-8.9c3.8-1,7.2-1.4,10.2-1.3c7.2,0.2,12.8,2.7,17.4,7.6
				c4.6,4.9,7.4,13.6,7.8,22.1c0.2,3.8-0.1,7.3-0.9,11.3c-0.8,3.9-3.5,7.9-8.3,11.7c11.3,7.7,18.7,20.5,21.6,33.6
				c2.4,10.6,2.1,18.3-2.3,23c-4.5,4.7-12,5.7-22.7,4c-6.7-1.1-13.2-3-19.4-5.8c-6.1-2.8-13.5-7.9-21.6-15.7
				C478.2,483.9,481.1,481.9,486.7,477.9z"/>
			<path class="st19" d="M540.5,401.9c4.3,0.6,6.5,1,11.1,1.9c2.2,14.5,4.7,29,7.3,43.5c9.5,2.2,14.3,3.5,24.2,6.3
				c-3.4-15-6.7-30-9.9-45.1c5.4,1.3,8.2,2,14.1,3.6c9.4,43.5,20.6,84.9,37.2,126.3c-5.7-2.4-8.7-3.6-14.8-6
				c-7.6-18-14.5-36.4-20.3-55.1c-10.1-3.1-15.2-4.5-25.3-7c5.1,17.8,11,35.2,17.7,52.5c-6.8-2.1-10.3-3.1-17.5-5
				C551.3,479.7,543.8,441.9,540.5,401.9z"/>
			<path class="st19" d="M633.4,425.3c7.5,2.3,11.4,3.5,19.6,6.1c20.1,48,35.4,99.2,51.8,148.5c-6.7-3.6-9.9-5.3-16.1-8.8
				c-3.9-10.6-7.9-21.2-12-31.8c-10.4-4.9-20.8-9.8-31.3-14.5c1.1,10.1,1.8,15.1,3.5,24.7c-5.3-2.6-8-3.9-13.6-6.5
				C628.4,505,623.4,463.3,633.4,425.3z M647.3,461.6c-2.9,13.4-3.4,26.7-3.5,40.3c8.4,3.3,12.8,5.2,22.1,9.1
				C659.6,494.6,653.7,478,647.3,461.6z"/>
			<path class="st19" d="M717.7,586.6c-3.8-44.4-6.9-90.3-1.1-134.7c8.4,2.7,12.7,4.2,21.7,7.1c9.9,3.2,19.9,6.6,29.2,11.4
				c8.7,4.5,15.4,10,19.8,17.5c4.4,7.5,1.9,16.2,0.1,22.7c-1.2,4.2-2.8,8.1-4.9,11.6c-2.1,3.5-6.2,6.1-11.9,7.9
				c7.7,6.6,10.2,12.4,12,19.1c1.8,6.7,2.6,14.2,2,22.6c-0.6,8-2.5,15-6,20.7c-3.5,5.7-8,9.2-13.4,10.5c-5.4,1.3-12.3,0.2-20.5-3.4
				C735.5,595.4,726.5,591.1,717.7,586.6z M740.2,483.2c-0.8,12.8-2,16.1-3.1,27.1c2.1,0.8,3.2,1.1,5.3,1.9c6,2.1,10.8,2.5,14.2,1.1
				c3.5-1.4,5.7-4.2,6.6-8c0.8-3.6-0.1-6.8-2.8-10.8s-7.3-6.9-13.4-9C744.3,484.6,742.9,484.2,740.2,483.2z M735.5,533.1
				c-0.5,12-0.6,24-0.4,36.1c2,0.9,3.1,1.3,5.1,2.1c8.6,3.5,14.8,4.5,18.3,2.9c3.4-1.6,5.5-5.1,6-10.5c0.6-6-0.9-11.5-4.7-16.4
				c-3.8-4.9-10.5-9.1-19.6-12.4C738.3,534.2,737.4,533.8,735.5,533.1z"/>
			<path class="st19" d="M844.2,491.3c9.3,2.2,14.4,3.2,25.1,5.2c19.6,46,34.4,94.1,53.4,140.4c-8.1,0.4-12.5,0.5-22.2,0.2
				c-4.4-10.7-8.7-21.3-12.9-32.1c-19.8-1.5-39.6-4.5-59-8.8c-3.2,9.6-6.3,19.3-9.5,28.9c-10.4-2.6-15.4-4-25-7
				c7.8-22.3,14.8-44.9,23.6-66.9C825.3,532.4,833.1,508,844.2,491.3z M856.4,529.3c-7.2,13.6-13.3,27.4-19.3,41.5
				c12.9,2.6,25.8,4.7,38.9,6.1C869.2,561.2,862.8,545.2,856.4,529.3z"/>
			<path class="st19" d="M922.7,503.9c22,1.7,43.7,1.9,65.7,0.3c-2,4.3-2.1,9.8-2.5,21c-13.7,1.5-27.2,2.3-41,2.1
				c0.8,11.2,0.2,12.6,0.3,20.7c12.8-0.3,25.2-1.4,37.9-3.4c-1.2,7.7-1.7,11.9-2.4,20.8c-11.8,2.3-22.7,3.6-34.6,4.6
				c0.8,12,1.8,24,3,35.9c10.3-1.3,19.7-3.4,29.8-6c-0.3,10.5-0.5,15.9-0.7,27c-13.9,4-27,6.9-41.3,8.8
				C930.5,592.2,923.8,548,922.7,503.9z"/>
			<path class="st19" d="M1020.6,500c8.5-1.5,12.6-2.3,20.7-4.2c1.2,20.5,1.7,40.6,2.3,61.2c6.5-14.3,13.5-27.3,22.4-40.2
				c7.4-10.9,13.6-26.9,23.7-35.1c7.3-2.6,11-4,17.8-6.7c-4.9,11.5-7.4,25-11.4,37.1c-5.7,17.2-8.9,35.4-12.7,53.1
				c-3.4,2-4.8,2.9-6.9,4.1c1.6-19.6,1-40.4,6.8-59.4c-18.7,23.8-29.5,52.9-39.9,80.9c-6.1,4.1-8.8,6.1-14.3,9.8
				c-1-22.1-2.8-44.1-4.1-66.2c-11.6,25.7-16.3,54.2-21.3,81.8c-6,3.2-9.1,4.6-15.9,7.3c3.5-23.1,6.7-46.5,13.3-69
				C1005.8,538.4,1011.6,513.8,1020.6,500z"/>
			<path class="st19" d="M1173.2,443.6c10-5,18.1-12,21.3-3.8c3.2,8.1,5.5,11.2,2.1,22.6c-4.8,16.4-14.4,31.2-24.5,44.4
				c-11.3,14.7-27.3,30.6-44,37.3c-6.5,2.6-21.9,8.5-24.7-4.2c-2.5-11.2,0.3-24.1,5.3-34.3c3.8-7.7,13.8-16.1,18.3-20.9
				c6.3-6.6,12.6-21,23-27.8C1158.8,451.2,1166.6,446.9,1173.2,443.6z M1165,458.2c-8.6,4.2-15.3,14.4-22.1,19.3
				c-6.6,4.9-16,13-20.2,21c-5.1,9.7-6.2,18-2.5,22.1c2.8,3.2,8,3.3,15.3-0.5c10.4-5.3,19.5-13.8,27-22.7c7-8.3,12.9-17.6,17.2-27.6
				c3.3-7.7,4.5-11.5,2.8-11.8C1180.7,457.7,1172,454.8,1165,458.2z"/>
			<path class="st19" d="M1350.4,403.4c-7.8,7.5-12.4,9-21.2,12.1c-11.7-5.7-17.5-9.6-29.9-8.3c-12.7,1.3-22.9,12.2-34.9,18.6
				c-8.6,4.6-18.6,9.3-22.1,19.3c-1.9,5.5-1.4,10.7,1.5,15.1s7.6,7.7,14.4,9.6c6.8,1.9,11.5,2.9,16.7,1.9c4.5-0.8,9-2.9,13.9-6.2
				c4.9-3.3,11.1-8.8,19.1-15.8c2.2,5.8,3.2,9,5.1,15.9c-8.4,8-16.8,16.5-26.1,23.3c-6.6,4.9-13.1,8.2-18.6,8.7
				c-13.6,1.4-29.5-1.4-41.6-10c-10.4-7.5-16-20.3-12-32.9c2.5-7.9,12-13.8,17.9-19.3c8.1-7.6,18.2-24.3,32.2-30.1
				c12.8-5.3,27.7-10.3,41-13.1c9.3-2,19.6-1.5,28.5-1.8C1341.1,390.3,1346.8,394.6,1350.4,403.4z"/>
			<path class="st19" d="M1366.9,388c16.9,0,33.7,0.6,50.5,3c-4.9-0.2-5.8,5.4-8.2,16.4c-5.8-0.7-8.9-1-15.4-1.6
				c-4.5,11.1-17.4,19.9-23.7,30.6c-9.6,16.4-16.1,34.6-22.8,52.3c-8.3-0.3-12.3-0.3-19.9-0.2c7-17.8,13.8-36,23.6-52.4
				c6.6-11,19.7-19.8,24.6-31.3c-7-0.2-10.7-0.2-18.3,0C1360.3,393.9,1361.5,388.4,1366.9,388z"/>
			<path class="st19" d="M1382.4,491.4c6.1-20.3,11.2-42.8,22.2-61.2c2.6-4.3,6.2-7.7,8.8-11.9c4.7-7.5,5.6-19.7,12.5-25.9
				c4.6,0.8,6.7,1.3,10.1,2c-5.4,9-1.5,22.9-10.5,29.4c1.3,0.2,1.9,0.3,3.1,0.6c5.9,1.1,10,2.6,13.4,4.7c3.4,2.1,6.2,5.3,9.4,10.8
				c3.2,5.5,6,13.1,7.1,22.3c1,8.7,0.2,16.5-3.4,22.7c-3.6,6.2-8.6,10.4-14.4,12.2c-5.8,1.8-14,1.5-23.8-0.4
				C1405.5,494.7,1394.1,492.9,1382.4,491.4z M1419.8,436.7c-3.6,10.2-6,20.7-8.5,31.1c2.1,0.3,3.2,0.5,5.3,0.9
				c8.8,1.6,14.9,1.5,18.1-0.5c3.2-2,4.7-6.3,5.2-11.9c0.9-10.3-6.5-17.9-16.6-19.1C1421.9,437.1,1421.2,436.9,1419.8,436.7z"/>
		</g>
	</g>
	<g class="st0">
		<g class="st10">
			<path class="st19" d="M435.4,339.1c-11.3-23.1-27.6-56.3-17.1-82.8c6.5-8.9,10.9-13.1,19.7-17.5c0.5,24.5,3.6,48,10.5,71.5
				c10.1-25.4,21.7-50.3,37.6-72.6c9.2,2.7,13.8,4.6,22.7,8.7c-21.1,25.1-33.7,56.1-44.4,86.7c-4,10.7-7.8,23-17.7,29.5
				c-6.8,4.4-15.4,6.4-24.3,5.8c-14.5-1-28.9-4.6-42-12.4c8.1-5.6,11.9-8.9,19.4-15.9c6.6,5.4,14.1,8.2,21.1,7.9
				c3.1-0.1,5.7-0.8,7.6-2.2C430.5,344.4,432.8,342.2,435.4,339.1z"/>
			<path class="st19" d="M517.2,374c-6.8-41.8-4.2-79.7,5.9-120.7c6.8,3.5,10,5.3,16.1,8.6c8.8,4.8,15.1,8.7,19.1,11.7
				c5.6,4.3,10.2,8.8,13.6,14.2c3.5,5.4,5.3,10.8,4.9,17.5c-0.3,4.3-1.2,8-3,10.9c-1.9,2.9-4.8,5.3-9.2,7.1
				c7.7,5.6,13.6,11.3,17.9,17.2c4.3,5.9,7.4,12.1,9.1,18.6c1.6,6.3,1.4,11.4-1.1,15.4c-2.5,4-6.8,6.4-13,7.2
				c-9.5,1.2-19.7-1-29.1-2.6C538,377.4,527.7,375.6,517.2,374z M538.6,281c-1.8,8.8-3.5,15.2-4.7,25.6c1.6,0.6,2.4,0.9,4.1,1.5
				c4.7,1.7,9.7,2,12.6,0.6c3-1.4,4.5-4.1,5.1-8c0.5-3.7-0.1-7.3-2.2-10.2c-2.1-2.8-5.8-5.3-10.2-7.3
				C541.4,282.3,540.4,281.9,538.6,281z M532.8,327.4c-0.1,10,0.6,20.2,1.9,30.1c1.9,0.4,2.9,0.6,4.8,1c8,1.7,19,3,22.5,1.7
				c3.6-1.3,4.8-4,4.1-8.3c-0.8-4.9-3.6-9.3-8.2-13.3c-4.6-4-13.6-7.7-21.2-10C535.1,328.1,534.4,327.9,532.8,327.4z"/>
			<path class="st19" d="M602.9,292.3c19.7,8,39.9,14.8,60.1,21.4c1,5.1,1.7,8,2.8,14.5c-13.6-4.3-27.1-8.7-40.6-13.3
				c1,6.6,0.9,11.3,2.3,19.2c13.5,4.3,27.1,8.5,40.7,12.6c1.4,7.8,2.3,11.8,4.5,19.9c-13.5-4-27-8.1-40.5-12.2
				c2.8,9.9,6.2,19.8,10,29.4c13.4,4,26.7,8.1,40,12.3c3.1,8.5,4.7,12.8,8,21.4c-21-7.2-42.1-13.9-63.4-20
				C612.5,362,607.8,329.8,602.9,292.3z"/>
			<path class="st19" d="M770.8,448.8c-9.2-30.6-18.8-61.2-31.2-90.7c-14.1,22.3-16.6,44.3-19,70.1c-10.2-3.7-16.3-5.8-24.1-8.5
				c-0.8-28.5,4.8-67.3,28.6-86.9c10,3,20,6,30,9c7.9,15.6,10.8,33.1,15.8,49.7c6.9,22.5,15,44.6,23.2,66.6
				C782.6,453.7,778.4,452,770.8,448.8z"/>
			<path class="st19" d="M898.7,367.9c16.3,43.2,27.2,90.1,38.7,134.7c-9.2-1.8-14.2-2.9-25.2-5.7c-8-30.7-17.3-61.1-25.3-91.9
				c-10.2,26.2-21.5,50.3-39.2,72.3c-11.8-4-23.4-8.2-35.1-12.5c-2.5-36.9-4-72.2,1.1-108.8c8.8,1.7,13.1,2.5,21.8,3.9
				c3,23.1,4.4,46.1,8.2,69.1c14-20,24.9-41.3,35.7-63.2C887.1,366.9,890.9,367.2,898.7,367.9z"/>
			<path class="st19" d="M992.1,435.8c-2.7,0.1-4.1,0.1-6.8,0.2c-9.7,0.3-17.1-0.4-22.2-1.8c-5.1-1.4-10.4-4.4-16-8.8
				s-10.2-9.6-13.6-15.3c-3.4-5.7-6-13.6-8.3-21.3c-2.5-8.5-3.9-12.3-6.3-19.1c9.7,0.7,14.6,1,24.8,1.7c2,6.6,3.1,10.3,5.2,18.5
				c1.8,7.1,4.2,13.4,7.8,16.8c3.6,3.4,10,5.2,19.3,5.3c5.4,0,8.1,0,13.6,0c-1-12.8-1.9-25.5-3.4-38.3c9.4,0.5,18.8,0.9,28.1,1.4
				c2.1,43,4.4,86,6.2,129c-11.7,2.1-16,2.4-21.6,2.8C997.2,483.1,994.7,459.4,992.1,435.8z"/>
			<path class="st19" d="M1130.6,374.8c-3.3,26.5-2.7,53.6-4.1,80.2c-8.6,4.9-12.8,7.3-20.8,12.2c0.4-23.6,0-47-0.3-70.6
				c-21,26.2-28.6,61.6-36.1,93.4c-6.1,2.4-9.7,3.7-17.6,6.2c-2.7-39.7-5.6-80.3-11.8-119.7c8.7,0.6,13.1,0.9,22.2,1.4
				c3,19.1,4,38.8,5.9,58.1c8.1-22.4,18-47.9,41.3-58.5C1117.6,376.8,1121.9,376.3,1130.6,374.8z"/>
			<path class="st19" d="M1148.6,371.2c22.2-5.9,43.5-12.2,64.4-22c0.3-0.1,0.5,0.1,0.7,1.4c-8.8,4.4-13.1,6.2-21.6,9.6
				c-1.7,21.1-2.2,42.4-3.8,63.5c-10.3,4.7-15.3,7-25,11.8c2-22,1.9-45.4,6.1-67.1c-8.4,2.8-12.1,4.2-21.8,7.1
				C1148,373,1148.2,372.2,1148.6,371.2z"/>
			<path class="st19" d="M1231.4,405.8c0.5-17,5.8-49.1-3.3-65.3c8.7-5.5,17.3-12.1,24.9-19c1.2,1.1,1.9,2.7,2.9,10.4
				c2-1.3,3-2,4.8-3.3c9-6.1,15.2-9.6,20.4-10.9c5.2-1.3,10-0.4,14.7,2.8c4.7,3.2,8.4,8.5,9.8,16.5c1.3,7.6,0.4,15.6-2.7,23.7
				s-7.4,15.1-12.6,20.1c-5.2,5-12.6,8.9-22.3,12C1255.7,396.9,1243.5,401.2,1231.4,405.8z M1256.9,342.7c0.5,8.3,0.7,13.6,0.5,27.4
				c2.4-1.1,3.6-1.6,6-2.6c9.8-4.3,15.8-7.9,18.8-11.7c2.9-3.7,3.9-8.8,3.6-13.9c-0.8-14.6-18.2-5-24.1-2
				C1259.8,341,1258.8,341.6,1256.9,342.7z"/>
		</g>
	</g>
	<g class="st0">
		<g class="st10">
			<path class="st19" d="M722,199.6c11.4-8.1,21-14.1,35.1-15.5c-17.6,42-12.2,83,13.7,120c-5.5-1.3-8.2-2-13.4-3.5
				c-21.9-29.8-27-59.8-17.9-95.5c-7,0.8-10.4,1.5-17,3.7c-12.3,31.9-9.2,59,13.3,85.2c-4.7-1.6-7.2-2.3-11.7-3.8
				C695.3,262.6,697,229.8,722,199.6z"/>
			<path class="st19" d="M768.1,183.9c4,0.2,6,0.4,10.2,0.9c5.6,0.8,9.6,2.8,11.9,5.7c2.3,2.9,4,7.2,5.5,13.2
				c1.5,6,2.6,13.1,3.4,21.5c1,9.3,1.2,17,0,22.8c-1.3,5.8-3.7,9.6-7.7,11.3c-2.3,1-7.1,0.9-14.1-0.2c5.8,19,13.7,35,24.7,51.6
				c-5.9-1.1-8.8-1.7-14.5-2.9C761.9,269.9,753.9,228,768.1,183.9z M773.2,234.2c1.6,0.2,2.4,0.3,4.1,0.6c3.2,0.5,5.4,0.4,6.6-0.3
				c1.2-0.7,2-2.1,2.5-4.1c0.5-2,0.6-4.5,0.5-7.5c-0.3-5.2-1.3-9-3-11.6c-1.3-1.9-3.7-3.2-7.2-3.8c-1.3-0.2-1.9-0.3-3.2-0.5
				C772.3,217.5,772.2,223.1,773.2,234.2z"/>
			<path class="st19" d="M841.4,199c12.7,4.1,21.6,14.3,30,24.1c11.6,13.7,20.5,30.7,27.5,47.3c5.3,12.7,11.1,28.3,9.2,42.1
				c-1.4,10.3-7.7,14.5-19.1,13.3c-15.8-1.6-29.9-11.5-41.5-21.2c-14.9-12.3-28.3-30.3-32.8-49.2c-2.6-11-4.6-22.7-2-34.3
				c2.1-9.6,6-16.2,11.3-20C829.1,197.5,835,196.9,841.4,199z M843.6,219.8c-6.9-1.8-12,0.6-15.1,7.8c-4.3,10.1-1.6,21.6,1,31
				c3.7,13.1,12.9,26.4,24,35.4c8.3,6.7,16,10.5,22.5,11.3c7.4,0.9,11.5-2.1,12.5-9.1c1.4-9.7-2.6-19.8-5.9-28.5
				c-4.2-11.2-10.6-22.1-18.2-31.7C857.1,226.9,850.4,221.5,843.6,219.8z"/>
			<path class="st19" d="M927.1,222c7.6,1.2,11.5,1.7,19.6,2.6c16.8,28.9,33.9,57.2,45.9,88.5c2.7,0.1,4.1,0.1,6.9,0.1
				c-0.1,10.4-0.3,20.3-3.2,30.4c-3-0.1-4.3-0.1-6.6-0.2c0.3-4.8,0.4-7.4,0.2-12.9c-14.6-0.5-29.1-1.3-43.6-2.3
				c2.8,5.8,4.2,8.5,6.9,13.7c-4.7-0.2-7.2-0.4-12.2-0.6c-6.5-10.8-12.4-21.8-18.3-32.9c3.6,0.3,5.3,0.5,8.8,0.8
				C925.5,281.3,919.9,250.4,927.1,222z M943,249.9c-1.3,20.2,0.6,40.8,4.3,60.7c11,0.8,22,1.5,33,2.1
				C968.8,291.3,955.6,270.7,943,249.9z"/>
			<path class="st19" d="M1031,226.8c6.6-0.4,9.8-0.7,16.1-1.2c10.2,34.2,26.1,68.4,21.5,104.8c-6.5,0.2-9.7,0.3-15.9,0.4
				c1.6-7.9,1.7-12.5,0.8-21.2c-10.6,0.4-21.1,0.7-31.7,0.9c-3.2,8.6-5.1,13-9.3,20.6c-4.9,0-7.2-0.1-11.5-0.1
				C1013.1,296.7,1017.2,260.3,1031,226.8z M1038.8,251.9c-3.6,12.8-6.9,25.6-10.6,38.4c8.6-0.3,13-0.5,21.8-0.9
				C1046.9,276.7,1042.9,264.3,1038.8,251.9z"/>
			<path class="st19" d="M1127.9,277.7c-1-1.3-1.4-1.9-2.4-3.2c-7.7,21.5-17.8,38.4-33.4,55c-7.7,0.4-11.5,0.5-19,0.8
				c19.3-20.1,31.1-40.9,40-67.2c-9.9-14-20.1-27.7-30.2-41.5c6.5-0.9,9.6-1.3,15.8-2.1c8.7,11.7,17.5,23.4,26.2,35.2
				c-2.4-12.6-5.6-24.9-8.7-37.3c4.8-0.5,7.2-0.8,11.9-1.1c4.2,12.3,8.2,24.6,11.3,37.1c2.5-12.6,4.4-25,4.6-37.8
				c5.3,0,7.9,0,13,0.4c1.4,15-0.5,29.1-3.4,43.8c12,17.9,28.2,39.1,26.8,61.9c-7.3,1.1-11,1.5-18.6,2.4
				c1.9-18.2-8.4-35.9-16.6-51.2c-0.6,1.4-1,2.2-1.7,3.6c1.3,18.6-0.3,33.2-8.1,50.3c-6.7,0.6-10.1,0.8-16.8,1.3
				C1126.6,310.9,1128.5,296.1,1127.9,277.7z"/>
			<path class="st19" d="M1206.1,231.5c24.8,18,54.8,45,33.9,76.4c-4.2,1.5-6.4,2.3-11.1,3.7c12.1-21.1,6.6-36.7-5.8-56.6
				c7.4,24.4-3.9,44.8-19.5,62.7c-4.9,1-7.4,1.4-12.5,2.3c16.8-37.3-3.2-72-24.8-102.9c4.2,0.6,6.3,1.1,10.4,2.1
				c16.2,18.5,28.4,38.5,34.9,62.3c2.1-19.8,0.2-39.7-14.4-54.8C1200.6,228.2,1201.9,228.9,1206.1,231.5z"/>
		</g>
	</g>
	<g class="st0">
		<g class="st10">
			<path class="st19" d="M537.3,137.8c15.2-8,30.6-15.4,46.2-22.4c4.4-1.9,4.9,2.2,1.2,9.2c-19.8,38.3-37.2,77.5-52,118
				c-2.4,6.7-8.5,8.9-13.8,5.1c-0.8-0.6-1.2-0.9-2-1.4c-5.3-3.8-7.6-11.4-5.1-17c12.4-26.5,26.2-52.1,41.3-77.2
				c3.6-5.9,3-9.9-1.4-8.9c-5.8,1.3-8.7,1.9-14.3,3.2c-4.3,1-11,5-15.1,8.9c-16.3,16.3-31.8,33.1-46.5,51c-2.9,3.6-9.4,3.3-14.7-0.5
				c-0.8-0.6-1.2-0.9-2-1.5c-5.3-3.8-7.1-8.9-4-11.4c21.5-16.5,43.7-31.8,66.7-46.2C526.6,143.8,533.5,139.8,537.3,137.8z"/>
			<path class="st19" d="M667.1,78.8c8.4-1.6,21.1-2,25.4,9.3c5.5,14.6-0.8,30.4-6.6,43.5c-9.1,20.5-23.5,39.3-38.4,56.5
				c-14.2,16.3-30.1,33.1-47.9,44.2c-7.2,4.5-25.1,16.2-30.9,4c-6.9-14.4,0.6-34.3,5.8-49c5.7-16.2,14.1-32.4,23.7-47.1
				c8.7-13.3,18.6-26.6,30.2-37.1C639.6,93,652.9,81.5,667.1,78.8z M649.4,107.5c-12.8,5.3-22.3,15.2-31.1,25.4
				c-10.9,12.4-19.8,28.1-25.3,43.4c-3.2,8.8-10.1,24.9-2.8,32.9c3.2,3.5,9.9,2.3,18.3-2.9c11.9-7.3,21.5-17.5,30.5-27.8
				c9.7-11.2,19.2-24.3,24.7-38c3.3-8.3,8.3-19.6,4.5-28.8C665.7,105.2,659.1,103.5,649.4,107.5z"/>
			<path class="st19" d="M682.3,180.8c17.7-39.9,37.6-78.5,59.6-116.1c1.6-2.8,5.6-5.6,8.7-6.3c6.8-1.5,10.1-2.1,16.6-3.4
				c12.7-2.5,21-3.1,25.6-2.6c6.5,0.7,10.2,3.2,11.3,7.4c1.1,4.3-0.6,9.7-4.9,16.3c-2.8,4.3-6.3,8.4-10.5,12.4
				c-2.4,2.3-5.3,4.6-8.4,6.9c-3.5,2.6-5.3,6-3.5,6.9c3.1,1.7,4.8,4,5.3,6.9c0.7,4.1-0.9,9.3-4.6,15.8c-3.6,6.3-8.6,12.4-15.3,18.6
				c-6.6,6.2-13.6,11.4-20.9,15.9c-8.1,4.9-17.4,9-26.3,12.2c-10.1,3.8-20.1,7.6-30,11.9C682.3,184.8,681.1,183.5,682.3,180.8z
				 M754.9,81.2c-3.9,6.5-5.8,9.7-9.6,16.2c-1.6,2.7-0.4,4.2,2.5,3.5c0.1,0,0.2,0,0.3-0.1c6.2-1.6,11.4-3.8,15.7-6.8
				c4.3-3,7.7-6.4,10.2-10.4c2.3-3.7,2.8-6.4,1.4-8c-1.4-1.6-5-1.9-10.9-0.6c-0.5,0.1-0.8,0.2-1.3,0.3
				C760.3,75.8,756.5,78.5,754.9,81.2z M728.2,127.8c-4.7,8.7-6.9,13-11.4,21.6c-1.4,2.6-0.2,4,2.6,3c0.4-0.1,0.6-0.2,1-0.4
				c10.1-3.4,17.6-6.7,22.4-10c4.8-3.4,8.4-7.2,10.9-11.6c2.8-5,3-8.4,0.5-10.2c-2.5-1.8-8.6-1.5-18.4,1.3l0,0
				C733.2,122.3,729.7,125.2,728.2,127.8z"/>
			<path class="st19" d="M785.7,147.1c18.1-34,37.6-67,58.9-99.1c1.6-2.3,4.7-4.4,6.9-4.6c4.6-0.4,6.8-0.5,11-0.8
				c2.1-0.1,2.5,1.6,1.1,3.8c-6.4,10.2-12.5,20.5-18.5,30.9c-1.3,2.3-0.4,3.8,2,3.6c0.1,0,0.1,0,0.2,0c8.5-1,14.8-0.8,19.3,0.6
				c4.5,1.3,7.6,4.4,9.8,9.1c2.2,4.7,2.6,10.5,0.6,17.6c-1.9,6.6-5.3,12.4-11,17.4c-5.7,5-12,8.9-18.7,11.6
				c-6.7,2.7-15.4,4.8-25.9,6.6c-10.9,2-21.8,4.1-32.7,6.4C785.9,150.7,784.5,149.4,785.7,147.1z M830.9,103.1
				c-4.3,8-6.4,12-10.4,20c-1.1,2.2,0.2,3.7,3,3.2c0.4-0.1,0.6-0.1,1-0.2c10.1-1.7,17.3-3.5,21.5-5.9c4.2-2.4,7.1-5.9,9.1-10.6
				c3.9-9.4-1.4-13.5-17.4-11.3l0,0C835.1,98.7,832.1,100.8,830.9,103.1z M908.5,40.8c5,0,7.5,0,12.4,0.1c2.4,0,4.2,1.7,3.8,3.7
				c-4.2,28.8-6.9,57.6-8.4,86.6c-0.1,2-2.7,3.7-5.9,3.8c-6.4,0.2-9.6,0.3-15.9,0.6c-3.1,0.2-5.4-1.4-5.1-3.4
				c3.9-29.5,9.2-58.7,16-87.7C905.9,42.5,906,40.8,908.5,40.8z"/>
			<path class="st19" d="M1048.7,76.2c-0.1,0.1-0.1,0.1-0.2,0.2c-3.1,2.4-9.1,1-13.8-2.2c-8.7-5.9-18.8-11-29.4-12.6
				c-8.3-1.2-20.3,0.8-27.2,6c-7.2,5.4-11.5,12.6-11.2,21.6c0.2,6.2,2.3,11.9,6.4,17.1c4.1,5.2,10,9.4,17.4,13
				c7.5,3.5,15.7,5.9,24.3,7.1c7.4,1.1,14,1.2,19.6,0.2c3.4-0.6,6.9-1.7,10.3-3.4c4.1-2,11-0.3,16,4c0.1,0.1,0.2,0.2,0.3,0.3
				c5.7,4.9,6.9,11.1,2.3,13.2c-5.2,2.3-10.5,3.8-15.9,4.4c-10,1.2-20.2,0-30.1-1.3c-18.7-2.4-39.2-8.8-54.8-19.4
				c-12-8.1-20.7-21.7-20.3-36.5c0.2-9.3,3.6-17.5,9.3-24.4c5.6-6.9,13.4-12.1,22.5-15.7c8.5-3.3,20.3-4.6,29.3-3.2
				c8.7,1.3,17.5,4,26.4,8.6c5.2,2.7,10.2,6,15.1,9.7C1050.4,67.2,1052.3,73.5,1048.7,76.2z"/>
			<path class="st19" d="M1145.3,87.5c13.9,32.1,27.3,64.5,40.1,97.1c1.9,4.9-0.5,7-5.5,4.7c-1.8-0.8-2.7-1.2-4.5-2.1
				c-5-2.3-10.6-7.9-12.4-12.7c-3.9-10.3-7.8-20.5-11.7-30.7c-3.3-8.6-16-15.9-17.9-10.3c-3.3,9.9-7.4,19.8-12,29.1
				c-0.9,1.9-3.6,2.3-7,1.2c-2.4-0.8-3.5-1.1-5.9-1.9c-5.4-1.7-10.9-6.5-12.3-10.8c-8.7-28.5-17.4-57-26-85.6
				c-1.3-4.1,1.3-6.7,5.6-5.6c1.6,0.4,2.4,0.6,3.9,0.9c4.3,1.1,9,5.4,10.5,9.6c3.4,9.8,6.8,19.7,10.2,29.5c2.8,8,15.6,14.5,17.3,8.8
				c3-10.6,5.4-20.9,7.5-31.7c0.3-2.1,2.2-2.8,4.9-1.9c1.6,0.5,2.4,0.8,4,1.3C1138.2,77.9,1143.3,82.8,1145.3,87.5z"/>
			<path class="st19" d="M1160.8,85.9c13.4,5.2,26.6,10.6,39.7,16.4c3.4,1.6,8,6.6,10.3,11.4c1.3,2.8,2,4.2,3.3,6.9
				c2.2,4.8,1.2,7.2-2.3,5.4c-1.9-0.9-2.8-1.4-4.6-2.3c-3.5-1.7-4.7,0.6-2.6,5.3c13,28.8,25.4,57.8,37.2,87c1.9,4.8,0.3,6.7-3.7,4.3
				c-2.6-1.6-3.9-2.4-6.5-3.9c-4.1-2.4-8.9-8.1-10.7-12.7c-11.3-28-23.1-55.8-35.4-83.5c-2-4.4-6.6-9.3-10.3-10.8
				c-1.7-0.7-2.6-1.1-4.4-1.8c-3.7-1.5-8.2-6.1-10.1-10.4c-1.1-2.5-1.7-3.7-2.8-6.2C1155.8,86.9,1157.2,84.6,1160.8,85.9z"/>
			<path class="st19" d="M1276.9,231.4c-17.2-39.4-35.8-78-55.8-116c-1.4-2.6-0.9-4,1-3.1c4.1,1.9,6.1,2.8,10.1,4.7
				c2,0.9,4.8,3.5,6.3,5.7c7.1,10.1,14,20.4,20.8,30.8c1.5,2.3,4.5,4.2,6.7,4.3c0.1,0,0.1,0,0.2,0c8.1,0.3,15.5,1.6,22.2,3.2
				c6.8,1.6,14.2,4.2,22.3,7.4c8.1,3.1,15.3,6.5,21,11c5.4,4.3,8.1,8.5,7.8,13.4c-0.3,4.9-2.5,9.6-6.4,13.7
				c-3.9,4.1-10.6,8.7-19.9,13.3c-9.8,4.8-19.6,9.7-29.4,14.5C1281.3,235.5,1278.1,234.3,1276.9,231.4z M1276,179.8
				c5.1,8.3,7.6,12.4,12.5,20.9c1.4,2.4,4.6,3.6,7.1,2.7c0.4-0.1,0.6-0.2,1-0.3c9.2-3.3,14.7-6.4,16.4-9.1c1.7-2.7,0.8-6.1-2.6-9.8
				c-8.1-8.7-21.1-10.3-32.7-9l0,0C1275.3,175.4,1274.6,177.5,1276,179.8z"/>
		</g>
	</g>
</g>
</svg>
